<?xml version="1.0" standalone="no"?>
<!DOCTYPE svg PUBLIC "-//W3C//DTD SVG 20010904//EN"
 "http://www.w3.org/TR/2001/REC-SVG-20010904/DTD/svg10.dtd">
<svg version="1.0" xmlns="http://www.w3.org/2000/svg"
 width="320.000000pt" height="711.000000pt" viewBox="0 0 320.000000 711.000000"
 preserveAspectRatio="xMidYMid meet">
<metadata>
Created by potrace 1.16, written by Peter Selinger 2001-2019
</metadata>
<g transform="translate(0.000000,711.000000) scale(0.100000,-0.100000)"
fill="#000000" stroke="none">
<path d="M0 6400 l0 -710 1600 0 1600 0 0 710 0 710 -1600 0 -1600 0 0 -710z"/>
<path d="M1586 4895 c-49 -27 -71 -34 -79 -26 -23 23 -36 12 -26 -21 5 -17 7
-33 5 -35 -2 -2 -18 14 -36 37 -44 56 -60 53 -57 -11 l2 -51 -185 -104 c-102
-58 -196 -116 -210 -130 l-25 -24 -3 -428 c-2 -413 -2 -428 18 -460 11 -18 32
-37 46 -42 14 -6 91 -10 172 -10 214 1 245 18 278 155 28 122 0 385 -41 385
-8 0 -15 4 -15 9 0 12 -35 5 -100 -18 -81 -30 -107 -27 -145 14 -18 19 -41 54
-50 78 -15 41 -15 47 -1 75 9 17 16 40 16 50 0 23 19 40 74 67 33 16 44 29 56
65 11 32 28 53 60 76 25 18 58 44 74 59 l29 26 -7 97 -7 97 33 -54 c40 -66 58
-75 58 -31 0 17 4 30 9 28 4 -1 35 -34 67 -73 l59 -69 -3 -76 c-2 -67 -1 -73
11 -55 14 17 16 18 38 3 13 -8 45 -37 72 -64 l47 -49 -57 -3 c-92 -4 -102 -8
-123 -55 -25 -54 -25 -118 0 -164 10 -20 16 -41 12 -47 -4 -6 -19 -30 -35 -52
-20 -29 -31 -65 -42 -130 -17 -104 -19 -184 -5 -184 6 0 10 8 11 18 4 116 18
184 48 234 59 97 55 94 95 63 33 -25 35 -29 33 -83 -1 -70 45 -252 70 -269 9
-7 40 -13 68 -13 51 0 84 15 115 53 14 17 17 18 29 3 7 -9 21 -16 30 -16 26 0
41 -21 41 -56 0 -20 9 -44 24 -61 21 -25 31 -28 100 -31 86 -5 115 7 141 58
14 26 15 87 13 455 l-3 425 -25 24 c-39 39 -630 368 -670 373 -27 3 -51 -4
-104 -32z m424 -186 c168 -94 311 -178 318 -187 9 -12 12 -114 12 -433 l0
-418 -27 -21 c-23 -18 -36 -21 -77 -16 -59 7 -83 26 -97 79 -12 46 -2 65 28
48 28 -15 61 11 69 54 9 47 -12 154 -35 186 -11 14 -21 35 -23 45 -2 15 2 18
25 16 23 -2 30 3 42 31 8 19 17 81 21 138 9 145 26 136 -236 129 -47 -1 -97 3
-111 8 -15 6 -68 48 -118 94 -79 72 -93 90 -106 135 -10 33 -39 83 -80 137
l-65 85 27 17 c16 10 37 23 48 30 45 29 74 18 385 -157z m-614 -74 c-8 -13
-40 -34 -70 -48 -58 -27 -70 -41 -80 -98 -8 -45 -19 -55 -71 -64 -52 -10 -65
-21 -65 -59 0 -17 -7 -40 -15 -50 -9 -12 -15 -42 -15 -78 0 -55 2 -61 38 -93
51 -48 97 -68 164 -73 43 -3 64 0 84 13 24 16 26 16 40 -2 30 -40 39 -90 39
-213 0 -108 -3 -130 -20 -160 -35 -58 -71 -72 -205 -78 -65 -2 -129 -2 -143 2
-59 14 -57 0 -57 454 0 229 4 423 9 431 5 7 91 60 192 117 l184 104 3 -41 c2
-24 -3 -50 -12 -64z m561 -294 c99 -5 125 -10 143 -26 36 -33 60 -82 72 -145
9 -54 8 -63 -7 -80 -10 -11 -26 -20 -37 -20 -27 0 -22 -12 16 -42 37 -30 82
-111 71 -129 -5 -8 -10 -8 -18 0 -15 15 -37 14 -37 -1 0 -7 12 -25 27 -40 22
-23 25 -32 17 -45 -16 -26 -35 -27 -41 -4 -5 21 -6 21 -36 -5 -18 -15 -36 -23
-46 -18 -9 3 -24 8 -33 11 -16 5 -16 8 -3 32 7 15 25 33 40 39 28 13 25 32 -5
32 -23 0 -63 -47 -96 -112 -45 -89 -115 -82 -139 13 -7 24 -26 72 -43 106 -38
75 -39 90 -8 151 13 26 29 67 36 92 7 24 25 64 42 88 39 57 29 65 -20 16 -31
-31 -40 -49 -46 -90 -14 -109 -54 -112 -108 -6 -45 87 -50 138 -15 169 29 27
52 33 107 26 25 -3 100 -8 167 -12z"/>
<path d="M1034 3476 c-66 -29 -64 -15 -64 -496 0 -487 -4 -460 73 -504 443
-253 603 -339 636 -339 29 0 105 39 351 177 173 97 325 188 338 202 l22 25 0
437 c0 485 2 470 -66 498 -49 20 -1244 20 -1290 0z m1270 -36 c43 -16 49 -42
51 -235 1 -99 -1 -188 -3 -197 -4 -16 -23 -18 -222 -18 -189 0 -219 2 -224 16
-8 21 -8 429 1 437 10 11 369 8 397 -3z m-1090 -96 c20 -19 21 -54 2 -54 -7 0
-16 9 -19 20 -6 21 -31 27 -43 9 -8 -14 -8 -244 1 -258 11 -18 37 -12 42 9 6
24 33 27 33 3 0 -24 -30 -53 -56 -53 -48 0 -54 20 -54 174 0 97 4 146 12 154
17 17 64 15 82 -4z m208 -1 c16 -14 18 -34 18 -170 0 -129 -2 -153 -15 -153
-11 0 -15 12 -15 45 0 43 -1 45 -30 45 -29 0 -30 -2 -30 -46 0 -32 -4 -44 -12
-41 -17 5 -13 304 4 324 15 18 58 16 80 -4z m208 2 c7 -9 15 -49 18 -90 4 -62
2 -75 -11 -75 -11 0 -16 15 -19 65 -4 68 -16 92 -42 82 -13 -5 -16 -23 -16
-87 l0 -80 28 0 c15 0 32 -4 38 -8 36 -24 20 -118 -22 -128 -33 -8 -76 21 -72
48 4 29 21 32 33 6 14 -32 33 -33 45 -4 13 36 3 56 -29 56 -43 0 -51 16 -51
109 0 65 4 89 17 103 20 22 66 24 83 3z m214 -1 c13 -13 16 -43 16 -171 0
-119 -3 -154 -12 -151 -7 3 -14 23 -16 46 -3 37 -6 42 -27 42 -21 0 -24 -5
-27 -42 -2 -23 -9 -43 -15 -46 -10 -3 -13 32 -13 151 0 168 6 187 55 187 13 0
31 -7 39 -16z m-636 -450 c21 -15 22 -21 22 -170 0 -130 -2 -154 -15 -154 -11
0 -15 12 -15 46 0 44 -1 45 -27 42 -25 -3 -28 -7 -28 -42 -1 -22 -6 -41 -13
-44 -9 -3 -12 35 -12 151 0 128 3 158 16 171 20 20 43 20 72 0z m173 -81 l24
-98 3 98 c2 77 6 97 17 97 13 0 15 -27 15 -170 0 -142 -2 -170 -15 -170 -8 0
-18 16 -24 38 -5 20 -16 62 -25 92 l-14 55 -1 -92 c-1 -76 -4 -93 -16 -93 -13
0 -15 26 -15 170 0 136 3 170 13 170 9 0 22 -34 38 -97z m251 80 c16 -14 18
-33 18 -154 0 -157 -5 -169 -71 -169 l-39 0 0 170 0 170 37 0 c20 0 45 -7 55
-17z m208 -5 c19 -21 21 -32 16 -113 -2 -49 -5 -94 -6 -100 0 -5 2 -31 6 -57
6 -40 4 -48 -10 -48 -11 0 -16 9 -16 33 0 37 -15 57 -41 57 -14 0 -19 -10 -21
-45 -2 -25 -7 -45 -13 -45 -6 0 -11 65 -13 170 l-2 170 39 0 c29 0 46 -6 61
-22z m230 7 c0 -11 -12 -15 -45 -15 l-45 0 0 -95 c0 -95 0 -95 25 -95 16 0 25
-6 25 -16 0 -11 -6 -15 -19 -11 -20 5 -31 -10 -31 -43 0 -15 9 -19 42 -22 23
-2 43 -9 46 -15 3 -10 -13 -13 -57 -13 l-61 0 0 163 c0 90 3 167 7 170 3 4 30
7 60 7 40 0 53 -4 53 -15z m90 -96 c5 -96 7 -104 25 -104 19 0 20 8 23 108 2
86 6 107 17 107 12 0 15 -20 15 -108 0 -96 -2 -111 -20 -127 -14 -13 -20 -31
-20 -62 0 -32 -4 -43 -15 -43 -11 0 -15 11 -15 43 0 31 -6 49 -20 62 -18 16
-20 31 -20 127 0 83 3 109 13 106 8 -3 14 -38 17 -109z"/>
<path d="M1952 3193 l3 -168 35 -2 c20 -2 44 4 55 12 18 14 20 28 20 156 0
159 -4 169 -77 169 l-38 0 2 -167z m77 133 c8 -9 11 -56 9 -142 l-3 -129 -27
-3 -28 -3 0 145 c0 136 1 146 19 146 10 0 24 -6 30 -14z"/>
<path d="M0 710 l0 -710 1600 0 1600 0 0 710 0 710 -1600 0 -1600 0 0 -710z
m2224 135 c8 -8 22 -15 30 -15 9 0 16 -4 16 -10 0 -5 -4 -10 -10 -10 -5 0 -10
-22 -10 -50 l0 -50 -55 0 c-61 0 -61 0 -68 73 -4 40 -2 47 13 47 10 0 20 7 24
15 3 8 14 15 25 15 11 0 26 -7 35 -15z m590 4 c32 -15 50 -57 37 -90 -14 -37
-36 -51 -77 -47 -70 6 -95 77 -44 128 23 23 48 25 84 9z"/>
</g>
</svg>
