<svg version="1.2" xmlns="http://www.w3.org/2000/svg" viewBox="0 0 225 323" width="225" height="323"><style>.a{fill:none;stroke:#808080;stroke-width:2}.b{fill:#fff}</style><path fill-rule="evenodd" class="a" d="m97 37.3l-7.2-9.5q-0.3-0.3-0.7-0.5-0.5-0.1-0.9 0.1-0.4 0.1-0.7 0.5-0.2 0.4-0.2 0.8l0.7 9q0 0.4-0.3 0.5-17.4 9.8-34.8 19.7c-5.8 3.3-7.9 6-7.9 12.6q0 34.9 0 69.8c0 9.5 0.8 17.4 11.7 17.9q5.3 0.3 22.8-0.1c7.5-0.1 13.7-3.6 15.9-10.9 4.4-14.4 2.8-28.1-0.8-41.8q-0.1-0.3-0.3-0.5-0.1-0.3-0.4-0.5-0.2-0.2-0.5-0.3-0.4-0.1-0.7-0.1-1.5 0.1-1.5-1.4 0-0.1 0-0.2-0.1-0.1-0.2-0.2-0.1 0-0.2 0-0.1 0.1-0.1 0.1-1.3 1.5-2.4 0.2-0.3-0.5-0.9-0.2c-5.3 3.2-15.3 7.1-20 2.5-3.1-3-10.3-13.6-5.3-17.7q0.1-0.1 0.1-0.2 0.1-0.1 0.2-0.2 0-0.1 0-0.2 0.1-0.1 0-0.2c-0.1-10.5 8.4-7 12.1-12.7q1.4-2.2 1.9-5c1.6-9 17.3-7.5 15.9-19.9q-0.8-6.9-1.7-13.6 0-0.1 0.1-0.2 0.1-0.2 0.2-0.2 0.1 0 0.3 0 0.1 0.1 0.2 0.2l5.5 9.6q2.3 4.1 3-0.5l0.7-4.2q0-0.1 0.1-0.2 0-0.1 0.1-0.1 0.1 0 0.1 0 0.1 0.1 0.2 0.1 5.1 6.7 10.7 13c3 3.4 1.4 11.6 1.2 15.9q-0.1 0.2 0 0.3 0.2 0.2 0.4 0.2 0.1 0.1 0.3 0 0.2-0.1 0.2-0.3l1.1-2.7q0.1-0.2 0.2-0.3 0.2-0.2 0.3-0.2 0.2-0.1 0.4 0 0.2 0 0.3 0.1 7.6 5.7 13.9 12.9 0.1 0.1 0.1 0.2 0 0.2-0.1 0.3 0 0.2-0.2 0.2-0.1 0.1-0.3 0.1c-4.9-0.6-13.6-2.2-16.6 2.7q-6.7 10.9 0.3 20.8 0.2 0.3 0.3 0.6 0.1 0.4 0.1 0.8 0 0.3-0.1 0.7-0.1 0.3-0.3 0.6c-2.4 3.3-5.3 6.4-6.3 10.5q-2.9 12.1-3.5 24.5 0 1.2 0.9 1.7 0.2 0.1 0.4 0.1 0.2 0 0.4-0.1 0.2-0.1 0.3-0.3 0.2-0.2 0.2-0.4 0.9-6.9 1.4-14c0.6-7 5.3-14 9.7-19.3q0.3-0.4 0.6-0.1c2.4 2.4 7.1 3.9 6.3 7.9-1.4 8.3 2.5 15.3 3.8 23.6 0.9 5.2 3.1 7.2 8.2 7.6q10.1 0.6 14.5-7.4 0.2-0.5 0.5 0c1.4 3.4 3.8 2.9 6.6 3.6q0.5 0.1 0.8 0.6 1.2 2.6 1.2 5.4c0 8.4 9.5 9.2 15.2 8.9q12.5-0.6 12.5-12.5 0-38.1-0.1-76.2 0-7.4-5.4-10.4-29-16.4-58.2-32.8c-9.3-5.2-14.6 0-22.3 4.3q-0.4 0.2-0.7 0.2-0.4 0.1-0.7 0.1-0.4-0.1-0.7-0.2-0.3-0.2-0.6-0.4l-2-1.9q-0.1-0.1-0.3-0.2-0.2 0-0.4 0.1-0.1 0.1-0.2 0.3-0.1 0.1-0.1 0.3l1.8 8.3q0 0 0 0 0 0.1 0 0.1-0.1 0-0.1 0 0 0 0-0.1z"/><path fill-rule="evenodd" class="a" d="m187.5 182.8c0-7.7-2.7-14.6-11.8-14.6q-57.8 0-115.6 0c-12.8 0.1-15.6 4.3-15.6 17q0 35.3 0 70.7c0 9.6 3.8 11.1 12.1 15.8q24.5 13.9 49 27.7c4.9 2.7 10.1 5.9 15.1 3.1q30-16.8 60-33.5 6.7-3.7 6.7-11.5 0.1-37.4 0.1-74.7z"/><path fill-rule="evenodd" class="a" d="m168.8 111.3l-1.6-1.1q-0.4-0.3-0.9 0-1.7 1.2-0.5 3c1.6 2.4 3.3 4.6 4.1 7.3 1.7 5.4 4.6 18.6-3 21q-0.4 0.1-0.9-0.1l-2.1-1.2q-2.3-1.3-2.4 1.3-0.2 10.4 8.3 11.9c16.5 3 12.3-11.4 12.4-21.2q0.4-31.3 0.1-62.7c-0.1-2.6-0.7-5-2.9-6.2q-28.8-16.3-57.8-32.5c-2.7-1.6-5.1-3-7.4-2.1q-2.9 1.2-10.8 6-0.4 0.3-0.1 0.7 5.6 7.3 11.1 14.8c2.4 3.2 3 7.3 4.3 11q0.1 0.4 0.3 0.8 0.2 0.4 0.5 0.7 0.2 0.4 0.5 0.7 0.3 0.4 0.6 0.6 7 6.2 13.6 12.5c6.6 6.2 15.6 5.4 23.8 4.3 4.5-0.6 16.7-2.2 17.4 4.4 0.3 3.8-1.1 11.1-1.7 18.8q-0.4 4.5-4 7.3 0 0-0.2 0.1-0.1 0-0.2 0-0.1 0-0.2 0-0.2 0-0.3-0.1z"/><path fill-rule="evenodd" class="a" d="m86.5 107.3c-9 6.4-21.1 1.2-27.7-5.6-4.5-4.6-4-11.8-1-16.9 2.1-3.4-0.3-9.2 4.7-9.8 8.2-1 8.9-0.9 10.5-9.1 1.7-8.1 10.1-6.4 14.2-11.5 2.1-2.7 1.6-7.5 1.5-10.7q0-0.8-0.7-0.4-16.6 9.4-33.3 18.7c-5.1 3-5.1 4.8-5.2 10.3q-0.1 31.8 0.1 63.5c0.1 6.2-2.5 17.6 7.3 17.7 8.1 0 21.3 1.2 27.6-1.7q6.9-3.3 8.1-12.5c1.3-10.3 1.5-23.1-5.2-31.8q-0.4-0.6-0.9-0.2z"/><path fill-rule="evenodd" class="a" d="m129.5 97.3c0.8-4.3 4.5-6.8 7.8-9.1q0.2-0.1 0.3-0.1 0.2 0.1 0.4 0.2 0.1 0.1 0.1 0.3 0 0.2-0.1 0.3c-2.7 3.7-5.3 7-6.5 11.6q-1.3 5.3-3.9 10.1c-2.9 5.7-3.4 9.7 0.1 15q3.6 5.5 5 11.8c1.1 4.8 4.1 9.2 9.6 6.3 6.1-3.2 6.4-19.3 16.2-16q0.2 0 0.3 0.2 0.2 0.2 0.2 0.5 0 0.2-0.2 0.4-0.1 0.2-0.3 0.3-5.8 2.1-7.6 8-0.2 0.8 0.5 0.4 2-1.2 3.6 0.7 0.3 0.4 0.8 0.4c3.5 0.7 5-1.6 7-4.4q0.1-0.1 0.3-0.2 0.1 0 0.2 0 0.1 0 0.3 0.1 0.1 0.1 0.1 0.2l0.8 2.3q0.8 2.2 2.7 0.8c4.8-3.8-1.2-6.5-3.3-9.1q-0.4-0.4-0.4-1 0.1-0.5 0.4-0.9 0.4-0.4 0.9-0.5 0.5-0.1 1 0.2l2.4 1.4q0.3 0.2 0.6 0.2 0.4-0.1 0.7-0.3 0.2-0.2 0.3-0.5 0.1-0.3 0-0.7-1.4-4.7-4-8.7c-1.8-2.7-4.5-4.1-7.1-6q-0.2-0.2-0.3-0.5-0.1-0.2 0-0.5 0.1-0.3 0.3-0.4 0.3-0.2 0.6-0.1c4.2 0.4 6.2-2 6.2-6.1 0.1-8.8-5-21.6-15.8-20.9q-10.1 0.7-19.9-1.1c-10-1.8-19.5 1.6-14.8 13.7q2.7 6.9 7.3 12.8 0.3 0.4 0.7 0.6 0.4 0.2 0.8 0.3 0.5 0 0.9-0.1 0.4-0.1 0.8-0.4c3-2.3 3.2-8 4-11.5z"/><path fill-rule="evenodd" class="a" d="m170.6 84.8c-1.4-4-6.5-3.7-8.9-1.2q-0.4 0.3-0.1 0.7c6.2 6.3 5.9 14.3 6.2 22.5q0 0.3 0.2 0.5 0.1 0.2 0.3 0.2 0.2 0.1 0.5 0.1 0.2-0.1 0.4-0.2c4.5-4.3 3.3-17.3 1.4-22.6z"/><path fill-rule="evenodd" class="a" d="m149.7 111.4c-3.3 0.4-6.8 4.2-4.8 7.4q0.6 1 1.2 0l3.9-6.8q0.1-0.1 0.1-0.2 0-0.1-0.1-0.2 0-0.1-0.1-0.1-0.1-0.1-0.2-0.1z"/><path fill-rule="evenodd" class="a" d="m159.9 121.6q-1.9-1.3-4.1-1.1-0.6 0-0.8 0.5c-2.4 4.9 10.9 7.4 9.5-0.7q-0.1-0.2-0.2-0.4-0.1-0.1-0.2-0.2-0.2 0-0.4 0-0.2 0-0.3 0.1l-2.7 1.8q-0.1 0-0.2 0.1-0.1 0-0.2 0-0.1 0-0.2 0-0.1-0.1-0.2-0.1z"/><path fill-rule="evenodd" class="a" d="m183.5 181.9c-0.1-5.6-2.7-9.7-8.8-9.7q-17.9 0-35.7 0.1-0.1 0-0.2 0-0.1 0-0.2 0.1 0 0.1-0.1 0.2 0 0.1 0 0.2v44.4q0 0.1 0.1 0.3 0 0.1 0.1 0.2 0.1 0.1 0.3 0.2 0.1 0 0.2 0l43.7 0.1q0.6 0 0.6-0.5 0.1-17.8 0-35.6z"/><path fill-rule="evenodd" class="a" d="m63 210.5q-0.2-0.7-0.2-1.8-0.6-12.1 0-21.9c0.1-1.7 0.5-2.8 2.3-3.1q0.4 0 0.7 0 0.4 0.1 0.7 0.3 0.3 0.2 0.6 0.4 0.2 0.3 0.3 0.7l0.9 2.3q0.2 0.4 0.6 0.7 0.5 0.3 1 0.2 0.5-0.1 0.8-0.5 0.4-0.4 0.4-0.9c0.1-4.7-5.1-8-9.1-5.2-2.6 1.9-2.1 4.4-2.3 7.2-0.2 5.1-1.5 20.1 1.3 24.1 3.8 5.3 12.7-1.5 9.7-4.9q-0.6-0.8-1.9-0.5-0.1 0-0.2 0.1-0.1 0-0.1 0.1-0.1 0.1-0.2 0.2 0 0.1-0.1 0.2l-0.5 2.2q-0.1 0.5-0.6 0.8-1.8 1.1-3.5 0.1-0.5-0.3-0.6-0.8z"/><path fill-rule="evenodd" class="a" d="m91.8 186.1c-0.2-6.2-9-7.4-10.8-1.5q-0.5 1.7-0.5 3.9 0 12.2 0 24.4 0 1.2 0.3 1.7 0.6 0.8 2.1 0.2 0.7-0.2 0.6-0.9l-0.1-7.6q0-0.6 0.6-0.6l4.6-0.3q0.7 0 0.7 0.7v8.3q0 0.7 0.7 0.7l1.3-0.1q0.7 0 0.7-0.8 0.1-14.1-0.2-28.1z"/><path fill-rule="evenodd" class="a" d="m104.4 210.4l-0.4-2.3q-0.1-0.6-0.7-0.6h-1.8q-0.1 0-0.2 0-0.1 0.1-0.2 0.2-0.1 0.1-0.1 0.2 0 0.1 0 0.2c1 12 15 7.1 10.8-5.3q-0.1-0.4-0.5-0.6-2.7-1.2-5.8-1.1-0.3 0-0.6-0.1-0.2-0.1-0.4-0.3-0.2-0.2-0.3-0.4-0.1-0.3-0.2-0.5-0.2-6.8 0.2-13.1c0.2-4 5.2-3.6 5.2 0.6q0.1 3.1 0.4 11.6 0 0.6 0.7 0.6h1.5q0.6 0 0.6-0.6-0.1-6-0.2-12c-0.2-8.2-10.9-8.3-11.3 0.2q-0.3 6.5 0.1 14.2 0 0.4 0.2 0.8 0.1 0.4 0.4 0.7 0.3 0.3 0.6 0.5 0.4 0.2 0.8 0.2l5.7 0.7q0.1 0 0.2 0.1 0.2 0 0.3 0.1 0 0.1 0.1 0.3 0 0.1 0 0.2l-0.1 5.2q0 0.5-0.4 0.8-1.9 1.6-4.1 0.3-0.1-0.1-0.2-0.2 0 0-0.1-0.1-0.1-0.1-0.1-0.2-0.1-0.1-0.1-0.3z"/><path fill-rule="evenodd" class="a" d="m126.1 205.6l4.8-0.1q0.1 0 0.3 0 0.1 0.1 0.2 0.2 0.1 0.1 0.1 0.2 0.1 0.1 0.1 0.3l-0.4 8q0 0.2 0 0.3 0.1 0.1 0.2 0.2 0.1 0.2 0.2 0.2 0.2 0.1 0.3 0.1l1.6-0.1q0.7 0 0.7-0.7 0.1-12.7 0-25.3 0-3.6-0.6-5c-1.7-4-8.1-4-10-0.5q-0.9 1.6-0.9 5.3 0.1 12.9 0.1 25.8 0 0.5 0.5 0.5h1.7q0.5 0 0.5-0.5v-8.3q0-0.6 0.6-0.6z"/><path fill-rule="evenodd" class="a" d="m68.3 251.3v8.6q0 0.7 0.6 0.6l1.7-0.1q0.6-0.1 0.6-0.6-0.2-12.4-0.2-24.8 0-4-0.5-5.5c-1.4-3.7-7.7-4.8-9.8-1.3q-0.9 1.5-0.9 4.7-0.3 13.4-0.3 26.8 0 0.5 0.5 0.5h2q0.5 0 0.5-0.5v-8.2q0-0.8 0.8-0.8h4.5q0.5 0 0.5 0.5z"/><path fill-rule="evenodd" class="a" d="m83.7 238.3l5.2 21.3c0.1 0.4 0.4 0.8 0.7 1 0.3 0.2 0.8 0.4 1.2 0.3 0.4 0 0.8-0.2 1-0.6 0.3-0.3 0.5-0.7 0.4-1.1v-32.4q0-0.7-0.6-0.7l-1.8-0.1q-0.6 0-0.6 0.6v21.1q0.1 0.1 0 0.1 0 0.1-0.1 0.1 0 0 0 0-0.1-0.1-0.1-0.1-2.5-10.4-5.3-20.6-0.4-1.5-2-1.2-1.2 0.3-1.2 1.5v32.4q0 0.6 0.6 0.6h1.9q0.5 0 0.5-0.5l0.1-21.7q0 0 0 0 0-0.1 0-0.1 0.1 0 0.1 0.1 0 0 0 0z"/><path fill-rule="evenodd" class="a" d="m101.7 226.6l-0.2 33.3q0.1 0.1 0.1 0.2 0 0.1 0.1 0.2 0.1 0.1 0.2 0.1 0.2 0.1 0.3 0.1h4.4q1.3 0 2.5-0.5 1.2-0.5 2.1-1.4 0.9-0.9 1.4-2.1 0.4-1.2 0.4-2.4l0.1-21.7q0-1.2-0.5-2.4-0.4-1.2-1.3-2.1-0.9-1-2.1-1.4-1.2-0.5-2.5-0.6h-4.4q-0.1 0-0.2 0.1-0.2 0-0.2 0.1-0.1 0.1-0.2 0.2 0 0.1 0 0.3z"/><path fill-rule="evenodd" class="a" d="m125.8 251.2l3.7 0.3q0.2 0 0.4 0.1 0.1 0.1 0.3 0.2 0.1 0.1 0.2 0.3 0 0.1 0.1 0.3l0.4 7.4q0 0.6 0.6 0.6l1.8 0.1q0.6 0.1 0.5-0.5l-0.3-7.8q0-0.6-0.4-1l-1-1q-0.1-0.1-0.2-0.2 0-0.1 0-0.3 0-0.1 0.1-0.3 0-0.1 0.1-0.2c2.2-1.8 1.8-12 1.7-16.4-0.2-6.9-5.7-7.1-11.1-6.7q-0.4 0-0.4 0.4l0.2 33.4q0 0.7 0.7 0.6l1.4-0.1q0.7-0.1 0.7-0.8v-7.9q0-0.6 0.5-0.5z"/><path fill-rule="evenodd" class="a" d="m146.6 247.8q0-0.1-0.1-0.1-0.1 0-0.1-0.1-0.1 0-0.1-0.1 0-0.1 0-0.1v-18.3q0-0.1 0-0.2 0-0.1 0.1-0.1 0-0.1 0.1-0.1 0.1 0 0.2 0l7.7 0.2q0 0 0.1 0 0.1-0.1 0.1-0.1 0.1-0.1 0.1-0.1 0.1-0.1 0.1-0.2l-0.1-2.1q0-0.1 0-0.2 0 0-0.1-0.1 0 0-0.1-0.1-0.1 0-0.2 0h-10.7q0 0-0.1 0-0.1 0.1-0.1 0.1-0.1 0.1-0.1 0.1 0 0.1 0 0.2l-0.1 33.6q0 0.1 0.1 0.2 0 0 0.1 0.1 0 0 0.1 0.1 0.1 0 0.1 0l10.8-0.2q0 0 0.1 0 0.1 0 0.1-0.1 0.1 0 0.1-0.1 0-0.1 0.1-0.2v-2q-0.1 0-0.1-0.1 0-0.1-0.1-0.1 0-0.1-0.1-0.1-0.1 0-0.1-0.1l-7.8 0.1q0 0-0.1 0-0.1 0-0.1-0.1-0.1 0-0.1-0.1 0-0.1 0-0.2v-6.2q-0.1-0.1 0-0.2 0 0 0.1-0.1 0-0.1 0.1-0.1 0.1 0 0.2 0l3.6 0.4q0.1 0 0.2 0 0.1 0 0.1-0.1 0.1-0.1 0.1-0.1 0.1-0.1 0.1-0.2l-0.1-2.4q0 0 0-0.1 0-0.1-0.1-0.1 0-0.1-0.1-0.1-0.1 0-0.2-0.1z"/><path fill-rule="evenodd" class="a" d="m165 251.4l-0.2 8.3q-0.1 0.5 0.5 0.5l2.2 0.1q0.6 0 0.6-0.6l-0.1-8.1q0-0.5 0.4-0.8 3.7-1.5 3.8-6.6 0.1-8.7 0-17.5 0-0.7-0.6-0.7h-1.5q-0.6 0-0.6 0.5 0 9-0.4 18-0.2 4.1-3.8 3-0.3-0.1-0.6-0.3-0.3-0.2-0.5-0.5-0.2-0.2-0.3-0.6-0.1-0.3-0.1-0.6l-0.4-18.8q0-0.7-0.7-0.7h-1.2q-0.6 0-0.6 0.6-0.5 15.9 0.1 20.2 0.4 2.7 3.5 3.8 0.1 0 0.2 0.1 0.1 0.1 0.2 0.2 0.1 0.1 0.1 0.2 0 0.1 0 0.3z"/><path fill-rule="evenodd" class="a" d="m143.6 181.3l-0.2 33.1q0 0.1 0 0.2 0.1 0.1 0.1 0.2 0.1 0.1 0.2 0.1 0.1 0.1 0.3 0.1h4.1q1.3 0 2.5-0.5 1.1-0.4 2-1.3 0.9-0.9 1.4-2 0.5-1.1 0.5-2.4l0.1-21.9q0-1.2-0.5-2.3-0.4-1.2-1.3-2-0.9-0.9-2.1-1.4-1.1-0.5-2.4-0.5h-4.2q-0.1 0-0.2 0-0.1 0.1-0.2 0.2-0.1 0-0.1 0.1 0 0.2 0 0.3z"/><path fill-rule="evenodd" class="a" d="m168 181.5q0-0.1-0.1-0.3 0-0.1-0.1-0.2-0.1-0.2-0.3-0.2-0.1-0.1-0.3-0.1h-1.1q-0.2 0-0.3 0.1-0.2 0-0.3 0.2-0.1 0.1-0.2 0.2 0 0.2 0 0.3v32.7q0 0.1 0 0.3 0.1 0.1 0.2 0.2 0.1 0.1 0.3 0.2 0.1 0.1 0.3 0.1h1.1q0.2 0 0.3-0.1 0.2-0.1 0.3-0.2 0.1-0.1 0.1-0.2 0.1-0.2 0.1-0.3z"/><path fill-rule="evenodd" class="a" d="m83.6 203h5.4q0 0 0 0 0.1 0 0.1-0.1 0 0 0.1 0 0-0.1 0-0.1l-0.1-13.8q0-1-0.2-2-0.2-0.9-0.5-1.7-0.4-0.7-0.8-1.1-0.5-0.4-1-0.4h-0.8q-0.5 0-0.9 0.4-0.5 0.4-0.8 1.1-0.4 0.8-0.6 1.7-0.2 1-0.2 2.1l0.1 13.7q0 0 0 0.1 0 0 0 0 0.1 0.1 0.1 0.1 0.1 0 0.1 0z"/><path fill-rule="evenodd" class="a" d="m131.3 185.7q0-0.3-0.1-0.5-0.1-0.3-0.3-0.5-0.2-0.2-0.5-0.3-0.3-0.1-0.5-0.1h-2.8q-0.3 0-0.6 0.1-0.2 0.1-0.4 0.3-0.2 0.2-0.3 0.4-0.1 0.3-0.1 0.6l-0.1 15.9q0 0.3 0.1 0.6 0.1 0.2 0.3 0.4 0.2 0.2 0.5 0.4 0.2 0.1 0.5 0.1h2.8q0.3 0 0.5-0.1 0.3-0.1 0.5-0.3 0.2-0.2 0.3-0.5 0.1-0.3 0.1-0.6z"/><path fill-rule="evenodd" class="a" d="m146.1 183.5v28.5q-0.1 0.1 0 0.1 0 0.1 0 0.1 0.1 0.1 0.1 0.1 0.1 0 0.1 0h2.1q0.7 0 1.4-0.3 0.6-0.3 1.1-0.8 0.5-0.5 0.8-1.2 0.3-0.7 0.3-1.5v-21.4q0-0.8-0.3-1.5-0.2-0.7-0.7-1.2-0.5-0.5-1.2-0.8-0.6-0.3-1.3-0.3h-2.1q-0.1 0-0.1 0-0.1 0-0.1 0.1-0.1 0-0.1 0 0 0.1 0 0.1z"/><path fill-rule="evenodd" class="a" d="m62.8 248.3h5.2q0.1 0 0.1 0 0.1-0.1 0.1-0.1 0 0 0-0.1 0.1 0 0.1-0.1l-0.1-13.6q0-1-0.2-2-0.2-0.9-0.6-1.6-0.3-0.8-0.8-1.2-0.4-0.3-0.9-0.3h-0.8q-0.5 0-0.9 0.4-0.5 0.4-0.8 1.1-0.3 0.7-0.5 1.7-0.2 0.9-0.2 1.9l0.1 13.7q0 0 0 0 0 0.1 0 0.1 0.1 0.1 0.1 0.1 0.1 0 0.1 0z"/><path fill-rule="evenodd" class="a" d="m110 230.4q0-0.3-0.1-0.6-0.1-0.3-0.4-0.5-0.2-0.2-0.4-0.3-0.3-0.1-0.6-0.1h-2.5q-0.3 0-0.6 0.1-0.3 0.1-0.5 0.3-0.2 0.3-0.3 0.5-0.1 0.3-0.1 0.6v25.5q0 0.2 0.1 0.5 0.1 0.3 0.4 0.5 0.2 0.2 0.4 0.3 0.3 0.1 0.6 0.1h2.5q0.3 0 0.6-0.1 0.3-0.1 0.5-0.3 0.2-0.2 0.3-0.5 0.1-0.3 0.1-0.6z"/><path fill-rule="evenodd" class="a" d="m125.3 229.4l-0.1 18.3q0 0.1 0 0.1 0.1 0.1 0.1 0.2 0.1 0 0.2 0 0 0.1 0.1 0.1h1.7q0.7 0 1.3-0.3 0.6-0.3 1.1-0.8 0.5-0.4 0.8-1.1 0.2-0.6 0.2-1.3l0.1-12q0-0.7-0.3-1.3-0.3-0.7-0.7-1.2-0.5-0.5-1.1-0.8-0.6-0.2-1.3-0.2h-1.7q-0.1 0-0.2 0-0.1 0-0.1 0.1-0.1 0-0.1 0.1 0 0.1 0 0.1z"/><path fill-rule="evenodd" class="b" d="m0 0h225v323h-225zm97 37.3l-7.2-9.5q-0.3-0.3-0.7-0.5-0.5-0.1-0.9 0.1-0.4 0.1-0.7 0.5-0.2 0.4-0.2 0.8l0.7 9q0 0.4-0.3 0.5-17.4 9.8-34.8 19.7c-5.8 3.3-7.9 6-7.9 12.6q0 34.9 0 69.8c0 9.5 0.8 17.4 11.7 17.9q5.3 0.3 22.8-0.1c7.5-0.1 13.7-3.6 15.9-10.9 4.4-14.4 2.8-28.1-0.8-41.8q-0.1-0.3-0.3-0.5-0.1-0.3-0.4-0.5-0.2-0.2-0.5-0.3-0.4-0.1-0.7-0.1-1.5 0.1-1.5-1.4 0-0.1 0-0.2-0.1-0.1-0.2-0.2-0.1 0-0.2 0-0.1 0.1-0.1 0.1-1.3 1.5-2.4 0.2-0.3-0.5-0.9-0.2c-5.3 3.2-15.3 7.1-20 2.5-3.1-3-10.3-13.6-5.3-17.7q0.1-0.1 0.1-0.2 0.1-0.1 0.2-0.2 0-0.1 0-0.2 0.1-0.1 0-0.2c-0.1-10.5 8.4-7 12.1-12.7q1.4-2.2 1.9-5c1.6-9 17.3-7.5 15.9-19.9q-0.8-6.9-1.7-13.6 0-0.1 0.1-0.2 0.1-0.2 0.2-0.2 0.1 0 0.3 0 0.1 0.1 0.2 0.2l5.5 9.6q2.3 4.1 3-0.5l0.7-4.2q0-0.1 0.1-0.2 0-0.1 0.1-0.1 0.1 0 0.1 0 0.1 0.1 0.2 0.1 5.1 6.7 10.7 13c3 3.4 1.4 11.6 1.2 15.9q-0.1 0.2 0 0.3 0.2 0.2 0.4 0.2 0.1 0.1 0.3 0 0.2-0.1 0.2-0.3l1.1-2.7q0.1-0.2 0.2-0.3 0.2-0.2 0.3-0.2 0.2-0.1 0.4 0 0.2 0 0.3 0.1 7.6 5.7 13.9 12.9 0.1 0.1 0.1 0.2 0 0.2-0.1 0.3 0 0.2-0.2 0.2-0.1 0.1-0.3 0.1c-4.9-0.6-13.6-2.2-16.6 2.7q-6.7 10.9 0.3 20.8 0.2 0.3 0.3 0.6 0.1 0.4 0.1 0.8 0 0.3-0.1 0.7-0.1 0.3-0.3 0.6c-2.4 3.3-5.3 6.4-6.3 10.5q-2.9 12.1-3.5 24.5 0 1.2 0.9 1.7 0.2 0.1 0.4 0.1 0.2 0 0.4-0.1 0.2-0.1 0.3-0.3 0.2-0.2 0.2-0.4 0.9-6.9 1.4-14c0.6-7 5.3-14 9.7-19.3q0.3-0.4 0.6-0.1c2.4 2.4 7.1 3.9 6.3 7.9-1.4 8.3 2.5 15.3 3.8 23.6 0.9 5.2 3.1 7.2 8.2 7.6q10.1 0.6 14.5-7.4 0.2-0.5 0.5 0c1.4 3.4 3.8 2.9 6.6 3.6q0.5 0.1 0.8 0.6 1.2 2.6 1.2 5.4c0 8.4 9.5 9.2 15.2 8.9q12.5-0.6 12.5-12.5 0-38.1-0.1-76.2 0-7.4-5.4-10.4-29-16.4-58.2-32.8c-9.3-5.2-14.6 0-22.3 4.3q-0.4 0.2-0.7 0.2-0.4 0.1-0.7 0.1-0.4-0.1-0.7-0.2-0.3-0.2-0.6-0.4l-2-1.9q-0.1-0.1-0.3-0.2-0.2 0-0.4 0.1-0.1 0.1-0.2 0.3-0.1 0.1-0.1 0.3l1.8 8.3q0 0 0 0 0 0.1 0 0.1-0.1 0-0.1 0 0 0 0-0.1zm90.5 145.5c0-7.6-2.7-14.6-11.7-14.6q-57.9 0-115.7 0.1c-12.7 0-15.6 4.2-15.6 16.9q0 35.3 0 70.7c0 9.6 3.8 11.1 12.1 15.8q24.5 13.9 49 27.7c4.9 2.7 10.1 5.9 15.1 3.1q30-16.7 60-33.5 6.7-3.7 6.7-11.5 0.1-37.4 0.1-74.7z"/><path fill-rule="evenodd" d="m97 37.3q0 0.1 0 0.1 0 0 0.1 0 0 0 0-0.1 0 0 0 0l-1.8-8.3q0-0.2 0.1-0.3 0.1-0.2 0.2-0.3 0.2-0.1 0.4-0.1 0.2 0.1 0.3 0.2l2 1.9q0.3 0.2 0.6 0.4 0.3 0.1 0.7 0.2 0.3 0 0.7-0.1 0.3 0 0.7-0.2c7.7-4.3 13-9.5 22.3-4.3q29.2 16.4 58.2 32.8 5.4 3 5.4 10.4 0.1 38.1 0.1 76.2 0 11.9-12.5 12.5c-5.7 0.3-15.3-0.5-15.2-8.9q0-2.8-1.2-5.4-0.3-0.5-0.8-0.6c-2.8-0.7-5.2-0.2-6.6-3.6q-0.3-0.5-0.5 0-4.4 8-14.5 7.4c-5.1-0.4-7.3-2.4-8.2-7.6-1.3-8.3-5.2-15.3-3.8-23.6 0.8-4-3.9-5.5-6.3-7.9q-0.3-0.3-0.6 0.1c-4.4 5.3-9.1 12.3-9.7 19.3q-0.5 7.1-1.4 14 0 0.2-0.2 0.4-0.1 0.2-0.3 0.3-0.2 0.1-0.4 0.1-0.2 0-0.4-0.1-0.9-0.5-0.9-1.7 0.6-12.4 3.5-24.4c1-4.2 3.9-7.3 6.3-10.6q0.2-0.3 0.3-0.6 0.1-0.4 0.1-0.7 0-0.4-0.1-0.8-0.1-0.3-0.3-0.6-7-9.9-0.3-20.8c3-4.9 11.7-3.3 16.6-2.7q0.2 0 0.3-0.1 0.2 0 0.2-0.2 0.1-0.1 0.1-0.3 0-0.1-0.1-0.2-6.3-7.2-13.9-12.9-0.1-0.1-0.3-0.1-0.2-0.1-0.4 0-0.1 0-0.3 0.2-0.1 0.1-0.2 0.3l-1.1 2.7q0 0.2-0.2 0.3-0.2 0.1-0.3 0-0.2 0-0.4-0.2-0.1-0.1-0.1-0.3c0.3-4.3 1.9-12.5-1.1-15.9q-5.7-6.3-10.7-13-0.1 0-0.2-0.1 0 0-0.1 0-0.1 0-0.1 0.1-0.1 0.1-0.1 0.2l-0.7 4.2q-0.7 4.6-3 0.5l-5.5-9.6q-0.1-0.1-0.2-0.2-0.2 0-0.3 0-0.1 0-0.2 0.2-0.1 0.1-0.1 0.2 0.9 6.7 1.7 13.6c1.4 12.4-14.3 10.9-15.9 19.9q-0.5 2.8-1.9 5c-3.7 5.7-12.2 2.2-12.1 12.7q0.1 0.1 0 0.2 0 0.1 0 0.2-0.1 0.1-0.2 0.2 0 0.1-0.1 0.2c-5 4.1 2.2 14.7 5.3 17.7 4.7 4.6 14.7 0.7 20-2.5q0.5-0.3 0.9 0.2 1.1 1.3 2.4-0.2 0 0 0.1-0.1 0.1 0 0.2 0 0.1 0.1 0.2 0.2 0 0.1 0 0.2-0.1 1.5 1.5 1.4 0.3 0 0.7 0.1 0.3 0.1 0.5 0.3 0.3 0.2 0.4 0.5 0.2 0.2 0.3 0.5c3.5 13.7 5.2 27.4 0.8 41.8-2.3 7.3-8.4 10.8-15.9 10.9q-17.6 0.4-22.8 0.1c-10.9-0.5-11.7-8.4-11.7-17.9q0-34.9 0-69.8c0-6.6 2.1-9.3 7.9-12.6q17.4-9.9 34.8-19.7 0.3-0.1 0.3-0.5l-0.7-9q0-0.4 0.2-0.8 0.3-0.4 0.7-0.5 0.4-0.2 0.9-0.1 0.4 0.2 0.7 0.5zm71.9 74l-1.7-1.1q-0.4-0.3-0.8 0-1.8 1.2-0.6 3c1.6 2.4 3.3 4.6 4.1 7.3 1.7 5.4 4.6 18.6-3 21q-0.4 0.1-0.9-0.1l-2.1-1.2q-2.3-1.3-2.4 1.3-0.2 10.4 8.4 11.9c16.4 3 12.2-11.4 12.3-21.2q0.4-31.3 0.1-62.7c0-2.6-0.7-5-2.8-6.2q-28.9-16.3-57.9-32.5c-2.7-1.6-5.1-3-7.4-2.1q-2.9 1.2-10.8 6-0.4 0.3-0.1 0.7 5.7 7.3 11.1 14.8c2.4 3.2 3.1 7.3 4.3 11q0.1 0.4 0.3 0.8 0.2 0.4 0.5 0.7 0.2 0.4 0.5 0.7 0.3 0.4 0.6 0.6 7 6.2 13.6 12.5c6.6 6.2 15.7 5.4 23.8 4.3 4.5-0.6 16.7-2.2 17.4 4.4 0.4 3.9-1 11.1-1.7 18.8q-0.4 4.5-3.9 7.3-0.1 0-0.3 0.1-0.1 0-0.2 0-0.1 0-0.2 0-0.1 0-0.2-0.1zm-82.4-4c-8.9 6.4-21.1 1.2-27.7-5.6-4.5-4.6-4-11.8-0.9-16.9 2-3.4-0.4-9.2 4.6-9.8 8.2-1 8.9-0.9 10.6-9.1 1.6-8.1 10-6.4 14.1-11.5 2.2-2.7 1.6-7.5 1.5-10.7q0-0.8-0.6-0.4-16.7 9.4-33.3 18.8c-5.2 2.9-5.2 4.7-5.2 10.2q-0.2 31.8 0.1 63.5c0 6.2-2.6 17.6 7.2 17.7 8.2 0 21.3 1.2 27.6-1.7q6.9-3.3 8.1-12.5c1.3-10.3 1.5-23.1-5.2-31.8q-0.4-0.6-0.9-0.2zm43-10c0.9-4.3 4.5-6.8 7.8-9.1q0.2-0.1 0.4-0.1 0.1 0.1 0.3 0.2 0.1 0.1 0.1 0.3 0 0.2-0.1 0.3c-2.6 3.7-5.3 7-6.5 11.6q-1.3 5.3-3.9 10.1c-2.9 5.7-3.4 9.7 0.1 15q3.6 5.5 5 11.8c1.1 4.8 4.1 9.2 9.6 6.3 6.1-3.2 6.4-19.3 16.2-16q0.2 0 0.3 0.2 0.2 0.2 0.2 0.5 0 0.2-0.2 0.4-0.1 0.2-0.3 0.3-5.8 2.1-7.6 8-0.2 0.8 0.5 0.4 2-1.2 3.6 0.7 0.3 0.4 0.8 0.4c3.5 0.7 5-1.6 7.1-4.4q0-0.1 0.2-0.2 0.1 0 0.2 0 0.2 0 0.3 0.1 0.1 0.1 0.1 0.2l0.8 2.3q0.8 2.2 2.7 0.8c4.8-3.8-1.2-6.5-3.3-9.1q-0.4-0.4-0.3-1 0-0.5 0.3-0.9 0.4-0.4 0.9-0.5 0.6-0.1 1 0.2l2.4 1.4q0.3 0.2 0.7 0.2 0.3-0.1 0.6-0.3 0.2-0.2 0.3-0.5 0.1-0.3 0.1-0.7-1.5-4.7-4.1-8.7c-1.8-2.7-4.5-4.1-7.1-6q-0.2-0.2-0.3-0.5-0.1-0.2 0-0.5 0.1-0.3 0.3-0.4 0.3-0.2 0.6-0.1c4.3 0.4 6.2-2 6.2-6.1 0.1-8.8-5-21.6-15.8-20.9q-10.1 0.7-19.9-1.1c-10-1.8-19.5 1.6-14.8 13.7q2.7 6.9 7.3 12.8 0.3 0.4 0.7 0.6 0.4 0.2 0.8 0.3 0.5 0 0.9-0.1 0.4-0.1 0.8-0.4c3-2.3 3.3-8 4-11.5zm41.1-12.5c-1.4-4-6.5-3.7-8.9-1.2q-0.4 0.3-0.1 0.7c6.2 6.3 5.9 14.3 6.2 22.5q0 0.3 0.2 0.5 0.1 0.2 0.3 0.2 0.2 0.1 0.5 0.1 0.2-0.1 0.4-0.2c4.5-4.3 3.3-17.3 1.4-22.6z"/><path class="b" d="m169.8 111.3q3.5-2.8 3.9-7.3c0.6-7.7 2-14.9 1.7-18.8-0.7-6.6-12.9-5-17.4-4.4-8.2 1.1-17.2 1.9-23.8-4.3q-6.6-6.3-13.6-12.5-0.3-0.2-0.6-0.6-0.3-0.3-0.5-0.7-0.3-0.3-0.5-0.7-0.2-0.4-0.3-0.8c-1.3-3.7-1.9-7.8-4.3-11q-5.5-7.5-11.1-14.8-0.3-0.4 0.1-0.7 7.9-4.8 10.8-6c2.3-0.9 4.7 0.5 7.4 2.1q29 16.2 57.8 32.5c2.2 1.2 2.8 3.6 2.9 6.2q0.3 31.4-0.1 62.7c-0.1 9.8 4.1 24.2-12.4 21.2q-8.5-1.5-8.3-11.9 0.1-2.6 2.4-1.3l2.1 1.2q0.5 0.2 0.9 0.1c7.6-2.4 4.7-15.6 3-21-0.8-2.7-2.5-4.9-4.1-7.3q-1.2-1.8 0.5-3 0.5-0.3 0.9 0l1.6 1.1q0.1 0.1 0.3 0.1 0.1 0 0.2 0 0.1 0 0.2 0 0.2-0.1 0.2-0.1z"/><path class="b" d="m87.4 107.5c6.7 8.7 6.5 21.5 5.2 31.8q-1.2 9.2-8.1 12.5c-6.3 2.9-19.5 1.7-27.6 1.7-9.8-0.1-7.2-11.5-7.3-17.7q-0.2-31.7-0.1-63.5c0.1-5.5 0.1-7.3 5.2-10.3q16.7-9.3 33.3-18.7 0.7-0.4 0.7 0.4c0.1 3.2 0.6 8-1.5 10.7-4.1 5.1-12.5 3.4-14.2 11.5-1.6 8.2-2.3 8.1-10.5 9.1-5 0.6-2.6 6.4-4.7 9.8-3 5.1-3.5 12.3 1 16.9 6.6 6.8 18.7 12 27.7 5.6q0.5-0.4 0.9 0.2z"/><path fill-rule="evenodd" class="b" d="m137.3 88.2c-3.3 2.3-7 4.8-7.8 9.1-0.8 3.5-1 9.2-4 11.5q-0.4 0.3-0.8 0.4-0.4 0.1-0.9 0.1-0.4-0.1-0.8-0.3-0.4-0.2-0.7-0.6-4.6-5.9-7.3-12.8c-4.7-12.1 4.8-15.5 14.8-13.7q9.8 1.8 19.8 1.1c10.9-0.7 16 12.1 15.9 20.9 0 4.1-2 6.5-6.2 6.1q-0.3-0.1-0.6 0.1-0.2 0.1-0.3 0.4-0.1 0.3 0 0.5 0.1 0.3 0.3 0.5c2.5 1.9 5.3 3.3 7.1 6q2.6 4 4 8.7 0.1 0.4 0 0.7-0.1 0.3-0.3 0.5-0.3 0.2-0.7 0.3-0.3 0-0.6-0.2l-2.4-1.4q-0.5-0.3-1-0.2-0.5 0.1-0.9 0.5-0.3 0.4-0.4 0.9 0 0.6 0.4 1c2.1 2.6 8.1 5.3 3.2 9.1q-1.8 1.4-2.6-0.8l-0.8-2.3q0-0.1-0.1-0.2-0.2-0.1-0.3-0.1-0.1 0-0.2 0-0.2 0.1-0.3 0.2c-2 2.8-3.6 5.1-7 4.4q-0.5 0-0.8-0.4-1.6-1.9-3.6-0.7-0.7 0.4-0.5-0.4 1.8-5.9 7.6-8 0.2-0.1 0.3-0.3 0.2-0.2 0.2-0.4 0-0.3-0.2-0.5-0.1-0.2-0.3-0.2c-9.8-3.3-10.1 12.8-16.3 16-5.4 2.9-8.4-1.5-9.5-6.3q-1.5-6.3-5-11.8c-3.5-5.3-3-9.3-0.1-15q2.6-4.8 3.9-10.1c1.2-4.6 3.8-7.9 6.5-11.6q0.1-0.1 0.1-0.3 0-0.2-0.1-0.3-0.2-0.1-0.4-0.2-0.1 0-0.3 0.1zm12.3 23.2c-3.2 0.4-6.7 4.2-4.7 7.4q0.6 1 1.1 0l4-6.8q0.1-0.1 0.1-0.2 0-0.1-0.1-0.2 0-0.1-0.1-0.1-0.1-0.1-0.3-0.1zm10.3 10.2q-1.9-1.3-4.1-1.1-0.6 0-0.8 0.5c-2.4 4.9 10.9 7.4 9.5-0.7q-0.1-0.2-0.2-0.4-0.1-0.1-0.2-0.2-0.2 0-0.4 0-0.2 0-0.3 0.1l-2.7 1.8q-0.1 0-0.2 0.1-0.1 0-0.2 0-0.1 0-0.2 0-0.1-0.1-0.2-0.1z"/><path class="b" d="m161.7 83.6c2.4-2.5 7.5-2.8 8.9 1.2 1.9 5.3 3.1 18.3-1.4 22.6q-0.2 0.1-0.4 0.2-0.3 0-0.5-0.1-0.2 0-0.3-0.2-0.2-0.2-0.2-0.5c-0.3-8.2 0-16.2-6.2-22.5q-0.3-0.4 0.1-0.7z"/><path  d="m144.9 118.8c-2-3.2 1.5-7 4.8-7.4q0.1 0 0.2 0.1 0.1 0 0.1 0.1 0.1 0.1 0.1 0.2 0 0.1-0.1 0.2l-3.9 6.8q-0.6 1-1.2 0z"/><path  d="m160.7 121.6l2.7-1.8q0.1-0.1 0.3-0.1 0.2 0 0.4 0 0.1 0.1 0.2 0.2 0.1 0.2 0.2 0.4c1.4 8.1-11.8 5.6-9.5 0.7q0.3-0.5 0.8-0.5 2.2-0.2 4.1 1.1 0.1 0 0.2 0.1 0.1 0 0.2 0 0.1 0 0.2 0 0.1-0.1 0.2-0.1z"/><path fill-rule="evenodd" d="m175.8 168.2c9 0 11.7 7 11.7 14.6q0 37.3-0.1 74.7 0 7.8-6.7 11.5-30 16.8-60 33.5c-5 2.8-10.2-0.4-15.1-3.1q-24.5-13.8-49-27.7c-8.3-4.7-12.1-6.2-12.1-15.8q0-35.4 0-70.7c0-12.7 2.8-16.9 15.6-16.9q57.8-0.1 115.6-0.1zm7.8 13.7c-0.1-5.6-2.7-9.7-8.7-9.7q-18 0-35.8 0.1-0.1 0-0.2 0-0.1 0-0.2 0.1 0 0.1-0.1 0.2 0 0.1 0 0.2v44.4q0 0.1 0.1 0.3 0 0.1 0.1 0.2 0.1 0.1 0.3 0.2 0.1 0 0.2 0l43.7 0.1q0.6 0 0.6-0.5 0.1-17.8 0-35.6zm-120.5 28.6q-0.2-0.7-0.2-1.7-0.6-12.2 0-22c0.1-1.7 0.5-2.8 2.3-3.1q0.4 0 0.7 0 0.4 0.1 0.7 0.3 0.3 0.2 0.6 0.4 0.2 0.3 0.3 0.7l0.9 2.3q0.2 0.4 0.6 0.7 0.5 0.3 1 0.2 0.5-0.1 0.8-0.5 0.4-0.4 0.4-0.9c0.1-4.7-5.1-7.9-9.1-5.2-2.6 1.9-2.1 4.4-2.3 7.3-0.2 5-1.5 20 1.3 24 3.8 5.3 12.7-1.5 9.7-4.9q-0.6-0.8-1.9-0.5-0.1 0-0.2 0.1-0.1 0-0.1 0.1-0.1 0.1-0.2 0.2 0 0.1-0.1 0.2l-0.5 2.2q-0.1 0.5-0.6 0.8-1.8 1.1-3.5 0.1-0.5-0.3-0.6-0.8zm28.7-24.4c-0.1-6.2-8.9-7.4-10.7-1.5q-0.5 1.7-0.5 3.9 0 12.2 0 24.4 0 1.2 0.3 1.7 0.6 0.8 2.1 0.2 0.6-0.2 0.6-0.9l-0.1-7.6q0-0.6 0.6-0.6l4.6-0.3q0.6 0 0.6 0.7v8.3q0 0.7 0.7 0.7l1.4-0.1q0.7 0 0.7-0.8 0.1-14.1-0.3-28.1zm12.7 24.4l-0.4-2.4q-0.1-0.6-0.7-0.6h-1.8q-0.1 0-0.2 0-0.1 0.1-0.2 0.2-0.1 0.1-0.1 0.2 0 0.1 0 0.2c1 12.1 15 7.1 10.8-5.3q-0.1-0.4-0.5-0.6-2.7-1.2-5.8-1.1-0.3 0-0.6-0.1-0.2-0.1-0.4-0.3-0.2-0.2-0.3-0.4-0.1-0.3-0.2-0.5-0.2-6.8 0.2-13.1c0.2-3.9 5.2-3.6 5.2 0.6q0.1 3.1 0.4 11.6 0 0.6 0.7 0.6h1.5q0.6 0 0.6-0.6-0.1-6-0.2-12c-0.2-8.2-10.9-8.3-11.3 0.2q-0.3 6.5 0.1 14.2 0 0.4 0.2 0.8 0.1 0.4 0.4 0.7 0.3 0.3 0.6 0.5 0.4 0.2 0.8 0.2l5.7 0.7q0.1 0 0.2 0.1 0.2 0 0.3 0.1 0 0.1 0.1 0.3 0 0.1 0 0.2l-0.1 5.2q0 0.5-0.4 0.8-1.9 1.6-4.1 0.3-0.1-0.1-0.2-0.2 0 0-0.1-0.1-0.1-0.1-0.1-0.2-0.1-0.1-0.1-0.2zm21.7-4.9l4.8-0.1q0.1 0 0.3 0 0.1 0.1 0.2 0.2 0.1 0.1 0.1 0.2 0.1 0.1 0.1 0.3l-0.4 8q0 0.2 0 0.3 0.1 0.1 0.2 0.2 0.1 0.2 0.2 0.2 0.2 0.1 0.3 0.1l1.6-0.1q0.7 0 0.7-0.7 0.1-12.7 0-25.3 0-3.6-0.6-5c-1.7-3.9-8.1-4-10-0.5q-0.9 1.6-0.9 5.3 0.1 12.9 0 25.8 0 0.5 0.6 0.5h1.7q0.5 0 0.5-0.5v-8.3q0-0.6 0.6-0.6zm-57.9 45.7v8.6q0 0.7 0.7 0.6l1.7-0.1q0.6-0.1 0.6-0.6-0.2-12.4-0.2-24.8 0-4-0.5-5.5c-1.4-3.7-7.7-4.8-9.8-1.2q-0.9 1.4-1 4.6-0.2 13.4-0.2 26.8 0 0.6 0.5 0.6h2q0.5 0 0.5-0.5v-8.3q0-0.7 0.7-0.7h4.5q0.5 0 0.5 0.5zm15.5-13l5.2 21.3c0.1 0.4 0.4 0.8 0.7 1 0.3 0.2 0.8 0.4 1.2 0.3 0.4 0 0.8-0.2 1-0.6 0.3-0.3 0.5-0.7 0.4-1.1v-32.4q0-0.7-0.6-0.7l-1.8-0.1q-0.6 0-0.6 0.6v21.2q0.1 0 0 0 0 0.1-0.1 0.1 0 0 0 0-0.1-0.1-0.1-0.1-2.5-10.4-5.3-20.6-0.4-1.5-2-1.2-1.2 0.3-1.2 1.5v32.4q0 0.6 0.6 0.6h1.9q0.5 0 0.5-0.5l0.1-21.7q0 0 0 0 0-0.1 0-0.1 0.1 0 0.1 0.1 0 0 0 0zm18-11.7l-0.2 33.3q0.1 0.1 0.1 0.2 0 0.1 0.1 0.2 0.1 0.1 0.2 0.1 0.2 0.1 0.3 0.1h4.4q1.3 0 2.5-0.5 1.2-0.5 2.1-1.4 0.9-0.9 1.4-2.1 0.4-1.2 0.4-2.4l0.1-21.6q0-1.3-0.5-2.5-0.4-1.2-1.3-2.1-0.9-1-2.1-1.4-1.2-0.5-2.5-0.5l-4.4-0.1q-0.1 0-0.2 0.1-0.2 0-0.2 0.1-0.1 0.1-0.2 0.2 0 0.1 0 0.3zm24.1 24.6l3.7 0.3q0.2 0 0.4 0.1 0.1 0.1 0.3 0.2 0.1 0.1 0.2 0.3 0 0.1 0.1 0.3l0.4 7.4q0 0.6 0.6 0.6l1.8 0.1q0.6 0.1 0.5-0.5l-0.3-7.8q0-0.6-0.4-1l-1-1q-0.1-0.1-0.2-0.2 0-0.1 0-0.3 0-0.1 0.1-0.3 0-0.1 0.1-0.2c2.2-1.8 1.8-12 1.7-16.4-0.2-6.9-5.7-7.1-11.1-6.7q-0.4 0-0.4 0.4l0.2 33.4q0 0.7 0.7 0.6l1.4-0.1q0.6-0.1 0.6-0.8v-7.9q0-0.6 0.6-0.5zm20.8-3.4q0-0.1-0.1-0.1-0.1 0-0.1-0.1-0.1 0-0.1-0.1 0-0.1-0.1-0.1v-18.3q0.1-0.1 0.1-0.2 0-0.1 0.1-0.1 0-0.1 0.1-0.1 0.1 0 0.2 0l7.7 0.2q0 0 0.1 0 0.1-0.1 0.1-0.1 0.1-0.1 0.1-0.1 0.1-0.1 0.1-0.2l-0.1-2.1q0-0.1 0-0.2 0 0-0.1-0.1 0 0-0.1-0.1-0.1 0-0.2 0h-10.7q0 0-0.1 0-0.1 0.1-0.1 0.1-0.1 0.1-0.1 0.1 0 0.1-0.1 0.2v33.6q0 0.1 0.1 0.2 0 0 0.1 0.1 0 0 0.1 0.1 0.1 0 0.1 0l10.8-0.2q0 0 0.1 0 0.1 0 0.1-0.1 0.1 0 0.1-0.1 0-0.1 0-0.2v-2q0 0 0-0.1 0-0.1-0.1-0.1 0-0.1-0.1-0.1-0.1 0-0.1 0h-7.8q0 0-0.1 0-0.1 0-0.1-0.1-0.1 0-0.1-0.1 0-0.1-0.1-0.2v-6.2q0-0.1 0.1-0.2 0 0 0.1-0.1 0-0.1 0.1-0.1 0.1 0 0.2 0l3.6 0.4q0.1 0 0.2 0 0.1 0 0.1-0.1 0.1-0.1 0.1-0.1 0.1-0.1 0.1-0.2l-0.1-2.4q0 0 0-0.1 0-0.1-0.1-0.1 0-0.1-0.1-0.1-0.1 0-0.2 0zm18.4 3.6l-0.2 8.3q-0.1 0.5 0.5 0.5l2.2 0.1q0.6 0 0.6-0.6l-0.1-8.1q0-0.5 0.4-0.7 3.7-1.6 3.8-6.7 0.1-8.7 0-17.5 0-0.7-0.6-0.7h-1.5q-0.6 0-0.6 0.5 0 9-0.4 18-0.2 4.1-3.8 3-0.3-0.1-0.6-0.3-0.3-0.2-0.5-0.5-0.2-0.2-0.3-0.6-0.1-0.3-0.1-0.6l-0.4-18.8q0-0.7-0.7-0.7h-1.2q-0.6 0-0.6 0.6-0.5 15.9 0.1 20.2 0.4 2.7 3.5 3.8 0.1 0 0.2 0.1 0.1 0.1 0.2 0.2 0.1 0.1 0.1 0.2 0 0.1 0 0.3z"/><path fill-rule="evenodd" class="b" d="m174.8 172.2c6 0 8.6 4.1 8.7 9.7q0.1 17.8 0 35.6 0 0.5-0.6 0.5l-43.7-0.1q-0.1 0-0.2 0-0.2-0.1-0.3-0.2-0.1-0.1-0.1-0.2-0.1-0.2-0.1-0.3v-44.4q0-0.1 0-0.2 0.1-0.1 0.1-0.2 0.1-0.1 0.2-0.1 0.1 0 0.2 0 17.7-0.1 35.7-0.1zm-31.1 9.1l-0.2 33.1q0 0.1 0 0.2 0.1 0.1 0.1 0.2 0.1 0.1 0.2 0.1 0.1 0.1 0.3 0.1h4.1q1.3 0 2.5-0.5 1.1-0.4 2-1.3 0.9-0.9 1.4-2 0.5-1.1 0.5-2.4l0.1-21.9q0-1.2-0.5-2.3-0.4-1.2-1.3-2-0.9-0.9-2.1-1.4-1.1-0.5-2.4-0.5h-4.2q-0.1 0-0.2 0-0.1 0.1-0.2 0.2-0.1 0-0.1 0.1 0 0.2 0 0.3zm24.4 0.2q0-0.1-0.1-0.3 0-0.1-0.1-0.2-0.1-0.2-0.3-0.2-0.1-0.1-0.3-0.1h-1.1q-0.2 0-0.3 0.1-0.2 0-0.3 0.2-0.1 0.1-0.2 0.2 0 0.2-0.1 0.3v32.7q0.1 0.1 0.1 0.3 0.1 0.1 0.2 0.2 0.1 0.1 0.3 0.2 0.1 0.1 0.3 0.1h1.1q0.2 0 0.3-0.1 0.2-0.1 0.3-0.2 0.1-0.1 0.1-0.2 0.1-0.2 0.1-0.3z"/><path class="b" d="m63.6 211.3q1.7 1 3.5-0.1 0.5-0.3 0.6-0.8l0.5-2.2q0.1-0.1 0.1-0.2 0.1-0.1 0.2-0.2 0-0.1 0.1-0.1 0.1-0.1 0.2-0.1 1.3-0.3 1.9 0.5c3 3.4-5.9 10.2-9.7 4.9-2.8-4-1.5-19-1.3-24.1 0.2-2.8-0.3-5.3 2.3-7.2 4-2.8 9.2 0.4 9.1 5.2q0 0.5-0.4 0.9-0.3 0.4-0.8 0.5-0.5 0.1-1-0.2-0.4-0.3-0.6-0.7l-0.9-2.3q-0.1-0.4-0.3-0.7-0.3-0.2-0.6-0.4-0.3-0.2-0.7-0.3-0.3 0-0.7 0c-1.8 0.3-2.2 1.4-2.3 3.1q-0.6 9.8 0 21.9 0 1.1 0.2 1.8 0.1 0.5 0.6 0.8z"/><path fill-rule="evenodd" class="b" d="m81 184.6c1.8-5.9 10.6-4.7 10.8 1.5q0.3 14 0.2 28.1 0 0.8-0.7 0.8l-1.3 0.1q-0.8 0-0.8-0.7v-8.3q0-0.7-0.6-0.7l-4.6 0.3q-0.6 0-0.6 0.6l0.1 7.6q0 0.7-0.6 0.9-1.5 0.6-2.1-0.2-0.3-0.5-0.3-1.7 0-12.2 0-24.4 0-2.2 0.5-3.9zm2.6 18.4h5.4q0 0 0 0 0.1 0 0.1-0.1 0 0 0.1 0 0-0.1 0-0.1l-0.1-13.8q0-1-0.2-2-0.2-0.9-0.5-1.7-0.4-0.7-0.8-1.1-0.5-0.4-1-0.4h-0.8q-0.5 0-0.9 0.4-0.5 0.4-0.8 1.1-0.4 0.8-0.6 1.7-0.2 1-0.2 2.1l0.1 13.7q0 0 0 0.1 0 0 0 0 0.1 0.1 0.1 0.1 0.1 0 0.1 0z"/><path class="b" d="m104.9 211.2q2.2 1.3 4.1-0.3 0.4-0.3 0.4-0.8l0.1-5.2q0-0.1 0-0.2-0.1-0.2-0.1-0.3-0.1-0.1-0.3-0.1-0.1-0.1-0.2-0.1l-5.7-0.7q-0.4 0-0.8-0.2-0.3-0.2-0.6-0.5-0.3-0.3-0.4-0.7-0.2-0.4-0.2-0.8-0.4-7.7-0.1-14.2c0.4-8.5 11.1-8.4 11.3-0.2q0.1 6 0.2 12 0 0.6-0.6 0.6h-1.5q-0.7 0-0.7-0.6-0.3-8.5-0.4-11.6c0-4.2-5-4.5-5.2-0.6q-0.4 6.3-0.2 13.1 0.1 0.2 0.2 0.5 0.1 0.2 0.3 0.4 0.2 0.2 0.4 0.3 0.3 0.1 0.6 0.1 3.1-0.1 5.8 1.1 0.4 0.2 0.5 0.6c4.2 12.4-9.8 17.4-10.8 5.3q0-0.1 0-0.2 0-0.1 0.1-0.2 0.1-0.1 0.2-0.2 0.1 0 0.2 0h1.8q0.6 0 0.7 0.6l0.4 2.3q0 0.2 0.1 0.3 0 0.1 0.1 0.2 0.1 0.1 0.1 0.1 0.1 0.1 0.2 0.2z"/><path fill-rule="evenodd" class="b" d="m125.5 206.2v8.3q0 0.5-0.5 0.5h-1.7q-0.6 0-0.6-0.5 0.1-12.9 0-25.8 0-3.7 0.9-5.3c1.9-3.5 8.3-3.5 10 0.5q0.6 1.4 0.6 5 0.1 12.6 0 25.3 0 0.7-0.7 0.7l-1.6 0.1q-0.1 0-0.3-0.1-0.1 0-0.2-0.2-0.1-0.1-0.2-0.2 0-0.1 0-0.3l0.4-8q0-0.2-0.1-0.3 0-0.1-0.1-0.2-0.1-0.1-0.2-0.2-0.2 0-0.3 0l-4.8 0.1q-0.6 0-0.6 0.6zm5.8-20.5q0-0.3-0.1-0.5-0.1-0.3-0.3-0.5-0.2-0.2-0.5-0.3-0.3-0.1-0.5-0.1h-2.8q-0.3 0-0.6 0.1-0.2 0.1-0.4 0.3-0.2 0.2-0.3 0.4-0.1 0.3-0.1 0.6l-0.1 15.9q0 0.3 0.1 0.6 0.1 0.2 0.3 0.4 0.2 0.2 0.5 0.4 0.2 0.1 0.5 0.1h2.8q0.3 0 0.5-0.1 0.3-0.1 0.5-0.3 0.2-0.2 0.3-0.5 0.1-0.3 0.1-0.6z"/><path fill-rule="evenodd" d="m143.6 181.3q0-0.1 0-0.3 0-0.1 0.1-0.1 0.1-0.1 0.2-0.2 0.1 0 0.2 0h4.2q1.3 0 2.4 0.5 1.2 0.5 2.1 1.4 0.9 0.8 1.3 2 0.5 1.1 0.5 2.3l-0.1 21.9q0 1.3-0.5 2.4-0.5 1.1-1.4 2-0.9 0.9-2 1.3-1.2 0.5-2.5 0.5h-4.2q-0.1 0-0.2-0.1-0.1 0-0.2-0.1 0-0.1-0.1-0.2 0-0.1 0-0.2zm2.5 2.3v28.5q0 0 0 0.1 0 0 0 0.1 0.1 0 0.1 0 0.1 0 0.1 0h2.1q0.7 0 1.4-0.2 0.6-0.3 1.1-0.9 0.5-0.5 0.8-1.2 0.3-0.7 0.3-1.5v-21.4q0-0.7-0.2-1.4-0.3-0.7-0.8-1.3-0.5-0.5-1.2-0.8-0.6-0.3-1.3-0.3h-2.1q-0.1 0-0.1 0-0.1 0-0.1 0.1 0 0-0.1 0.1 0 0 0 0.1z"/><path  d="m165.3 181.5c-0.1-0.4 0.3-0.8 0.8-0.8h1.1c0.4 0 0.8 0.4 0.8 0.8v32.7c0 0.4-0.4 0.8-0.8 0.8h-1.1c-0.5 0-0.9-0.4-0.9-0.8z"/><path class="b" d="m146.1 183.5q0 0 0-0.1 0 0 0.1 0 0-0.1 0.1-0.1 0 0 0.1 0h2.1q0.7 0 1.3 0.3 0.7 0.3 1.2 0.8 0.5 0.5 0.7 1.2 0.3 0.7 0.3 1.5v21.4q0 0.8-0.3 1.5-0.3 0.7-0.8 1.2-0.5 0.5-1.1 0.8-0.7 0.3-1.4 0.3h-2.1q0 0-0.1 0 0 0-0.1-0.1 0 0 0-0.1-0.1 0 0-0.1z"/><path  d="m83.6 203q0 0-0.1 0 0 0-0.1-0.1 0 0 0 0 0-0.1 0-0.1l-0.1-13.7q0-1.1 0.2-2.1 0.2-0.9 0.6-1.7 0.3-0.7 0.8-1.1 0.4-0.4 0.9-0.4h0.8q0.5 0 1 0.4 0.4 0.4 0.8 1.1 0.3 0.8 0.5 1.7 0.2 1 0.2 2l0.1 13.8q0 0 0 0.1-0.1 0-0.1 0 0 0.1-0.1 0.1 0 0 0 0z"/><path  d="m125.7 185.7c0-0.8 0.6-1.4 1.4-1.4h2.8c0.7 0 1.4 0.6 1.4 1.4l-0.1 15.9c0 0.8-0.6 1.5-1.4 1.5h-2.8c-0.8 0-1.4-0.7-1.4-1.5z"/><path fill-rule="evenodd" class="b" d="m67.8 250.8l-4.5-0.1q-0.8 0-0.8 0.8v8.2q0 0.5-0.5 0.5h-2q-0.5 0-0.5-0.5 0-13.4 0.3-26.8 0-3.2 0.9-4.7c2.1-3.5 8.4-2.4 9.8 1.3q0.5 1.5 0.5 5.5 0 12.4 0.2 24.8 0 0.5-0.6 0.6l-1.7 0.1q-0.6 0.1-0.6-0.6v-8.7q0-0.5-0.5-0.5zm-5-2.4h5.2q0.1 0 0.1 0 0.1-0.1 0.1-0.1 0 0 0-0.1 0.1 0 0.1-0.1l-0.1-13.6q0-1-0.2-2-0.2-0.9-0.6-1.6-0.3-0.8-0.8-1.2-0.4-0.3-0.9-0.3h-0.8q-0.5 0-0.9 0.4-0.5 0.4-0.8 1.1-0.3 0.7-0.5 1.7-0.2 0.9-0.2 1.9l0.1 13.7q0 0 0 0 0 0.1 0 0.1 0.1 0.1 0.1 0.1 0.1 0 0.1 0z"/><path class="b" d="m83.6 238.3l-0.1 21.7q0 0.5-0.5 0.5h-1.9q-0.6 0-0.6-0.6v-32.4q0-1.2 1.2-1.5 1.6-0.3 2.1 1.2 2.7 10.2 5.2 20.6 0 0 0.1 0.1 0 0 0 0 0.1 0 0.1-0.1 0.1 0 0 0l0.1-21.2q0-0.6 0.5-0.6l1.8 0.1q0.7 0 0.7 0.7v32.4c0 0.4-0.2 0.8-0.5 1.1-0.2 0.4-0.6 0.6-1 0.6-0.4 0.1-0.9-0.1-1.2-0.3-0.3-0.2-0.6-0.6-0.7-1l-5.2-21.3q0 0 0 0 0-0.1-0.1-0.1 0 0 0 0.1 0 0 0 0z"/><path fill-rule="evenodd" class="b" d="m101.7 226.6q0-0.2 0-0.3 0.1-0.1 0.2-0.2 0-0.1 0.2-0.1 0.1-0.1 0.2-0.1h4.4q1.3 0.1 2.5 0.6 1.2 0.4 2.1 1.4 0.9 0.9 1.3 2.1 0.5 1.2 0.5 2.5l-0.1 21.6q0 1.2-0.4 2.4-0.5 1.2-1.4 2.1-0.9 0.9-2.1 1.4-1.2 0.5-2.5 0.5h-4.4q-0.1 0-0.3-0.1-0.1 0-0.2-0.1-0.1-0.1-0.1-0.2 0-0.1-0.1-0.2zm8.4 3.8q0-0.3-0.2-0.6-0.1-0.3-0.3-0.5-0.2-0.2-0.5-0.3-0.2-0.1-0.5-0.1h-2.6q-0.3 0-0.5 0.1-0.3 0.1-0.5 0.3-0.2 0.2-0.3 0.5-0.1 0.3-0.1 0.6v25.4q0 0.3 0.1 0.6 0.1 0.3 0.3 0.5 0.2 0.2 0.5 0.3 0.3 0.1 0.6 0.1h2.5q0.3 0 0.6-0.1 0.3-0.1 0.5-0.3 0.2-0.2 0.3-0.5 0.1-0.3 0.1-0.6z"/><path fill-rule="evenodd" class="b" d="m125.3 251.7v7.9q0 0.7-0.7 0.8l-1.4 0.1q-0.7 0.1-0.7-0.6l-0.2-33.4q0-0.4 0.4-0.4c5.4-0.4 10.9-0.2 11.1 6.7 0.1 4.4 0.5 14.6-1.7 16.4q-0.1 0.1-0.1 0.2-0.1 0.2-0.1 0.3 0 0.2 0 0.3 0.1 0.1 0.2 0.2l1 1q0.4 0.4 0.4 1l0.3 7.8q0.1 0.6-0.5 0.5l-1.8-0.1q-0.6 0-0.6-0.6l-0.4-7.4q-0.1-0.2-0.1-0.3-0.1-0.2-0.2-0.3-0.2-0.1-0.3-0.2-0.2-0.1-0.4-0.1l-3.7-0.3q-0.5-0.1-0.5 0.5zm0-22.3l-0.1 18.3q0 0.1 0 0.1 0.1 0.1 0.1 0.2 0.1 0 0.2 0 0 0.1 0.1 0.1h1.7q0.7 0 1.3-0.3 0.6-0.3 1.1-0.8 0.5-0.4 0.8-1.1 0.2-0.6 0.2-1.3l0.1-12q0-0.7-0.3-1.3-0.3-0.7-0.7-1.2-0.5-0.5-1.1-0.8-0.6-0.2-1.3-0.2h-1.7q-0.1 0-0.2 0-0.1 0-0.1 0.1-0.1 0-0.1 0.1 0 0.1 0 0.1z"/><path class="b" d="m146.6 247.8l3.7-0.1q0.1 0.1 0.2 0.1 0.1 0 0.1 0.1 0.1 0 0.1 0.1 0 0.1 0 0.1l0.1 2.4q0 0.1-0.1 0.2 0 0-0.1 0.1 0 0.1-0.1 0.1-0.1 0-0.2 0l-3.6-0.4q-0.1 0-0.2 0-0.1 0-0.1 0.1-0.1 0.1-0.1 0.1-0.1 0.1 0 0.2v6.2q0 0.1 0 0.2 0 0.1 0.1 0.1 0 0.1 0.1 0.1 0.1 0 0.1 0l7.8-0.1q0 0.1 0.1 0.1 0.1 0 0.1 0.1 0.1 0 0.1 0.1 0 0.1 0.1 0.1v2q-0.1 0.1-0.1 0.2 0 0.1-0.1 0.1 0 0.1-0.1 0.1-0.1 0-0.1 0l-10.8 0.2q0 0-0.1 0-0.1-0.1-0.1-0.1-0.1-0.1-0.1-0.1-0.1-0.1-0.1-0.2l0.1-33.6q0-0.1 0-0.2 0 0 0.1-0.1 0 0 0.1-0.1 0.1 0 0.1 0h10.7q0.1 0 0.2 0 0.1 0.1 0.1 0.1 0.1 0.1 0.1 0.1 0 0.1 0 0.2l0.1 2.1q0 0.1-0.1 0.2 0 0-0.1 0.1 0 0-0.1 0.1-0.1 0-0.1 0l-7.7-0.2q-0.1 0-0.2 0-0.1 0-0.1 0.1-0.1 0-0.1 0.1 0 0.1 0 0.2v18.3q0 0 0 0.1 0 0.1 0.1 0.1 0 0.1 0.1 0.1 0.1 0 0.1 0z"/><path class="b" d="m164.5 250.6q-3.1-1.1-3.5-3.8-0.6-4.3-0.1-20.2 0-0.6 0.6-0.6h1.2q0.7 0 0.7 0.7l0.4 18.8q0 0.3 0.1 0.6 0.1 0.4 0.3 0.6 0.2 0.3 0.5 0.5 0.3 0.2 0.6 0.3 3.6 1.1 3.8-3 0.4-9 0.4-18 0-0.5 0.6-0.5h1.5q0.6 0 0.6 0.7 0.1 8.8 0 17.5-0.1 5.1-3.8 6.6-0.4 0.3-0.4 0.8l0.1 8.1q0 0.6-0.6 0.6l-2.2-0.1q-0.6 0-0.5-0.5l0.2-8.3q0-0.2 0-0.3 0-0.1-0.1-0.2-0.1-0.1-0.2-0.2-0.1-0.1-0.2-0.1z"/><path  d="m104.5 230.4c0-0.8 0.6-1.5 1.5-1.5h2.5c0.8 0 1.5 0.7 1.5 1.5v25.4c0 0.9-0.6 1.5-1.5 1.5h-2.5c-0.8 0-1.5-0.6-1.5-1.4z"/><path  d="m125.3 229.4q0 0 0-0.1 0-0.1 0.1-0.1 0-0.1 0.1-0.1 0.1 0 0.2 0h1.7q0.7 0 1.3 0.2 0.6 0.3 1.1 0.8 0.4 0.5 0.7 1.2 0.3 0.6 0.3 1.3l-0.1 12q0 0.7-0.2 1.3-0.3 0.7-0.8 1.1-0.5 0.5-1.1 0.8-0.6 0.3-1.2 0.3h-1.8q-0.1 0-0.1-0.1-0.1 0-0.2 0 0-0.1-0.1-0.2 0 0 0-0.1z"/><path  d="m62.8 248.3q0 0-0.1 0 0 0-0.1-0.1 0 0 0-0.1 0 0 0 0l-0.1-13.7q0-1 0.2-1.9 0.2-1 0.5-1.7 0.3-0.7 0.8-1.1 0.4-0.4 0.9-0.4h0.8q0.5 0 0.9 0.3 0.5 0.4 0.8 1.2 0.4 0.7 0.6 1.6 0.2 1 0.2 2l0.1 13.6q0 0.1-0.1 0.1 0 0.1 0 0.1 0 0-0.1 0.1 0 0-0.1 0z"/></svg>