<?xml version="1.0" encoding="UTF-8" standalone="no"?>
<!DOCTYPE svg PUBLIC "-//W3C//DTD SVG 1.1//EN" "http://www.w3.org/Graphics/SVG/1.1/DTD/svg11.dtd">
<svg xmlns="http://www.w3.org/2000/svg" version="1.1" viewBox="0.00 0.00 225.00 323.00">
<g stroke-width="2.00" fill="none" stroke-linecap="butt">
<path stroke="#808080" vector-effect="non-scaling-stroke" d="
  M 100.95 39.73
  L 112.90 53.99
  A 0.54 0.43 -77.6 0 1 113.01 54.21
  C 114.13 58.95 113.04 64.17 112.96 69.04
  Q 112.95 70.07 113.43 69.16
  L 115.25 65.76
  A 0.59 0.59 0.0 0 1 116.12 65.56
  Q 123.76 71.14 129.90 78.36
  A 0.55 0.54 72.7 0 1 129.43 79.26
  C 124.44 78.72 116.01 77.08 112.87 82.15
  Q 107.85 90.26 111.14 99.73
  Q 111.30 100.19 111.67 100.51
  C 113.97 102.48 113.98 104.56 112.10 107.03
  C 109.53 110.39 107.52 113.12 106.60 117.44
  Q 104.32 128.23 103.51 139.23
  Q 103.37 141.14 104.47 142.03
  A 0.81 0.80 -67.3 0 0 105.78 141.49
  Q 106.51 134.41 107.12 127.31
  C 107.72 120.40 112.44 113.45 116.67 108.16
  Q 117.00 107.75 117.39 108.10
  C 119.90 110.42 124.41 112.16 123.73 116.00
  C 123.22 118.83 122.89 122.13 123.96 125.24
  Q 126.56 132.81 127.71 140.76
  Q 128.28 144.78 131.04 146.01
  C 137.61 148.95 146.54 147.14 149.81 139.90
  Q 150.16 139.12 150.59 139.86
  Q 152.65 143.39 156.81 143.13
  A 1.01 0.99 71.7 0 1 157.72 143.60
  Q 159.75 146.86 159.18 150.72
  Q 159.11 151.19 159.30 151.62
  C 163.38 161.21 183.53 160.79 186.31 150.51
  C 187.64 145.60 186.88 136.68 186.90 132.94
  Q 187.14 101.44 186.92 69.93
  C 186.87 63.18 184.16 60.70 178.25 57.36
  Q 150.48 41.69 122.70 26.04
  C 114.25 21.29 107.76 26.79 100.71 30.87
  A 1.83 1.82 51.7 0 1 98.52 30.61
  L 96.14 28.34
  A 0.49 0.49 0.0 0 0 95.32 28.80
  L 97.09 37.29
  A 0.13 0.13 0.0 0 1 96.85 37.39
  Q 93.65 32.25 89.52 27.95
  A 1.26 1.26 0.0 0 0 87.36 28.91
  L 88.00 37.67
  Q 88.02 38.04 87.70 38.22
  Q 70.27 47.97 52.90 57.84
  C 47.24 61.06 44.89 64.09 45.08 70.50
  C 45.74 92.57 44.88 112.91 45.01 140.83
  C 45.05 150.56 45.99 157.67 57.08 158.18
  Q 63.27 158.46 78.94 158.09
  C 95.51 157.70 97.42 144.51 98.17 130.93
  Q 98.67 121.74 95.04 107.24
  Q 94.32 104.38 92.26 103.90
  Q 91.84 103.80 91.62 103.42
  L 91.35 102.97
  Q 91.16 102.65 90.79 102.65
  L 87.07 102.65
  A 0.65 0.59 27.5 0 0 86.76 102.73
  C 80.70 106.13 71.37 109.73 66.03 103.24
  C 62.96 99.52 57.75 91.23 62.12 86.88
  Q 62.48 86.52 62.48 86.01
  C 62.38 79.38 66.76 77.86 72.06 76.04
  A 4.77 4.76 -1.0 0 0 75.07 72.93
  L 77.13 66.21
  A 1.24 1.21 79.6 0 1 77.52 65.63
  Q 81.90 61.96 86.79 58.96
  C 90.68 56.58 92.80 53.94 92.29 49.48
  Q 91.47 42.26 90.62 35.29
  A 0.46 0.46 0.0 0 1 91.48 35.02
  C 93.26 38.24 95.72 44.21 98.87 45.85
  Q 99.48 46.17 99.60 45.49
  L 100.58 39.83
  Q 100.66 39.39 100.95 39.73"
/>
<path stroke="#808080" vector-effect="non-scaling-stroke" d="
  M 187.65 180.31
  C 187.66 173.76 182.67 168.26 176.00 168.26
  Q 118.02 168.25 60.05 168.25
  C 47.07 168.25 44.49 172.71 44.50 185.50
  Q 44.50 220.95 44.51 256.41
  C 44.51 261.15 45.83 265.72 49.80 267.96
  Q 78.60 284.20 107.39 300.42
  C 112.37 303.23 116.57 304.93 121.44 302.19
  Q 148.87 286.78 176.26 271.29
  C 183.26 267.32 187.48 265.24 187.49 257.25
  Q 187.54 218.78 187.65 180.31"
/>
<path stroke="#808080" vector-effect="non-scaling-stroke" d="
  M 168.60 111.05
  L 167.00 110.19
  Q 166.56 109.96 166.20 110.30
  Q 164.56 111.80 165.75 113.50
  Q 169.30 118.56 169.99 121.10
  C 171.56 126.78 174.44 138.82 166.84 141.51
  Q 166.39 141.67 165.99 141.42
  L 163.40 139.81
  A 0.71 0.70 43.2 0 0 162.62 139.83
  C 158.62 142.61 163.75 152.42 168.26 153.25
  C 174.13 154.32 182.57 154.33 182.51 145.99
  Q 182.17 95.96 182.28 69.73
  C 182.30 65.07 180.71 64.02 177.05 61.95
  Q 148.44 45.75 119.74 29.73
  C 114.40 26.75 108.21 31.87 103.58 34.54
  A 0.67 0.67 0.0 0 0 103.38 35.53
  Q 108.74 42.42 113.97 49.51
  C 116.52 52.96 117.43 56.78 118.49 60.72
  A 7.15 7.14 12.6 0 0 120.77 64.31
  Q 127.29 69.83 133.86 76.11
  C 143.38 85.22 155.53 79.89 167.54 80.31
  C 172.95 80.50 175.77 82.23 175.29 88.02
  C 174.81 93.88 174.90 107.18 170.15 110.91
  A 1.42 1.41 -50.1 0 1 168.60 111.05"
/>
<path stroke="#808080" vector-effect="non-scaling-stroke" d="
  M 86.57 107.16
  C 78.77 114.37 64.69 107.81 58.54 101.56
  C 54.49 97.45 54.76 89.51 57.83 84.99
  C 59.73 82.20 58.45 79.28 59.44 77.08
  C 61.33 72.88 68.96 76.41 71.53 71.95
  C 73.74 68.11 71.68 63.62 76.31 60.73
  C 84.63 55.54 90.41 56.43 88.59 43.67
  Q 88.50 43.09 87.98 43.37
  Q 72.11 52.11 56.42 61.14
  C 52.50 63.39 49.89 64.48 49.81 68.74
  Q 49.21 103.41 49.62 146.40
  C 49.67 151.74 53.08 153.49 58.11 153.52
  C 71.73 153.59 89.44 156.75 92.32 140.84
  C 94.28 130.05 93.85 116.79 87.51 107.27
  A 0.63 0.62 51.5 0 0 86.57 107.16"
/>
<path stroke="#808080" vector-effect="non-scaling-stroke" d="
  M 136.90 88.71
  Q 139.08 87.75 137.63 89.64
  C 134.97 93.11 132.67 96.08 131.54 100.59
  Q 129.88 107.16 126.96 111.95
  C 122.88 118.62 126.90 124.24 130.70 131.41
  C 132.88 135.49 133.33 148.45 142.11 143.70
  C 148.12 140.45 147.76 130.22 154.70 127.29
  Q 157.09 126.29 158.72 128.24
  A 0.51 0.51 0.0 0 1 158.52 129.04
  Q 152.53 131.34 150.81 137.51
  A 0.13 0.13 0.0 0 0 150.99 137.67
  L 152.65 136.95
  Q 153.16 136.73 153.57 137.11
  C 157.93 141.14 160.18 137.28 162.81 134.28
  Q 163.30 133.71 163.58 134.41
  L 164.55 136.90
  Q 165.17 138.49 166.67 137.68
  Q 168.72 136.58 169.17 134.22
  Q 169.30 133.55 168.81 133.08
  L 164.06 128.58
  A 1.51 1.51 0.0 0 1 164.33 126.19
  L 164.68 125.99
  Q 165.20 125.68 165.71 125.99
  L 168.25 127.54
  A 1.08 1.07 -82.2 0 0 169.84 126.33
  Q 168.44 121.33 165.56 117.15
  C 163.80 114.62 160.93 113.26 158.48 111.19
  A 0.44 0.44 0.0 0 1 158.66 110.43
  C 160.33 110.04 163.85 109.54 164.94 107.63
  C 166.53 104.83 164.93 97.76 163.98 94.77
  C 162.14 88.99 156.82 82.37 150.00 82.94
  Q 140.44 83.74 131.04 82.19
  C 107.35 78.28 112.44 95.36 121.63 107.40
  C 123.17 109.43 125.01 110.20 126.65 107.64
  C 129.69 102.91 127.83 97.61 131.56 92.95
  Q 133.90 90.02 136.90 88.71"
/>
<path stroke="#808080" vector-effect="non-scaling-stroke" d="
  M 171.26 86.51
  C 170.04 81.66 165.26 79.92 161.72 83.63
  Q 161.39 83.97 161.72 84.31
  C 167.80 90.61 167.50 98.64 167.80 106.79
  A 0.85 0.85 0.0 0 0 169.28 107.33
  C 173.22 103.02 172.55 91.69 171.26 86.51"
/>
<path stroke="#808080" vector-effect="non-scaling-stroke" d="
  M 144.48 118.77
  A 0.73 0.73 0.0 0 0 145.84 119.20
  L 149.98 112.16
  A 0.73 0.73 0.0 0 0 148.95 111.18
  L 145.15 113.68
  A 0.73 0.73 0.0 0 0 144.82 114.24
  L 144.48 118.77"
/>
<path stroke="#808080" vector-effect="non-scaling-stroke" d="
  M 163.12 119.87
  C 161.00 122.66 158.86 120.83 156.34 120.37
  Q 155.84 120.28 155.45 120.62
  Q 154.51 121.44 154.71 122.66
  C 155.33 126.42 166.70 127.13 164.29 120.06
  A 0.67 0.67 0.0 0 0 163.12 119.87"
/>
<path stroke="#808080" vector-effect="non-scaling-stroke" d="
  M 183.47 181.86
  C 183.45 176.03 180.70 172.27 174.50 172.26
  Q 156.64 172.23 139.00 172.26
  A 0.50 0.50 0.0 0 0 138.50 172.76
  L 138.50 217.36
  A 0.61 0.60 0.0 0 0 139.11 217.96
  L 183.06 217.86
  A 0.43 0.43 0.0 0 0 183.49 217.43
  Q 183.53 199.65 183.47 181.86"
/>
<path stroke="#808080" vector-effect="non-scaling-stroke" d="
  M 66.94 211.52
  L 64.19 211.76
  A 0.92 0.91 -13.3 0 1 63.26 211.19
  Q 62.85 210.16 62.78 208.50
  Q 62.23 195.75 62.85 185.81
  C 63.07 182.26 67.92 183.68 68.20 187.64
  Q 68.25 188.43 69.03 188.28
  L 70.66 187.95
  Q 71.19 187.85 71.18 187.31
  C 71.15 179.15 59.98 177.57 59.72 188.01
  C 59.52 196.41 58.86 204.22 59.93 210.22
  C 61.24 217.66 71.43 215.51 71.24 208.89
  A 1.56 1.56 0.0 0 0 68.15 208.61
  L 67.67 210.88
  A 0.82 0.82 0.0 0 1 66.94 211.52"
/>
<path stroke="#808080" vector-effect="non-scaling-stroke" d="
  M 91.97 187.77
  C 91.91 178.17 80.51 178.17 80.50 188.51
  Q 80.49 201.43 80.50 214.42
  A 0.60 0.59 84.0 0 0 81.21 215.00
  L 83.01 214.64
  Q 83.54 214.53 83.54 213.98
  L 83.41 205.99
  A 0.47 0.47 0.0 0 1 83.88 205.51
  L 88.75 205.49
  Q 89.25 205.49 89.25 206.00
  L 89.25 214.25
  Q 89.25 215.00 90.00 215.00
  L 91.48 215.00
  Q 91.98 215.00 91.98 214.50
  Q 92.04 201.12 91.97 187.77"
/>
<path stroke="#808080" vector-effect="non-scaling-stroke" d="
  M 109.46 204.91
  Q 109.43 206.07 109.44 208.51
  C 109.47 213.46 103.47 212.66 104.16 207.81
  Q 104.26 207.13 103.59 207.22
  L 101.62 207.47
  Q 101.18 207.53 101.14 207.97
  C 100.09 219.29 117.43 216.13 111.60 202.33
  A 1.13 1.11 -6.7 0 0 110.75 201.67
  L 104.34 200.71
  Q 103.96 200.65 103.97 200.27
  L 104.09 186.37
  A 2.35 2.35 0.0 0 1 106.12 184.05
  C 108.16 183.76 109.26 184.83 109.37 186.83
  Q 109.70 192.83 109.78 198.84
  Q 109.79 199.47 110.41 199.48
  L 111.94 199.51
  A 0.57 0.56 -88.4 0 0 112.51 198.96
  Q 112.78 191.02 112.38 186.17
  C 111.76 178.63 101.20 178.92 101.03 187.27
  Q 100.90 193.72 101.15 200.20
  C 101.32 204.64 105.70 203.55 108.89 204.20
  A 0.71 0.70 6.8 0 1 109.46 204.91"
/>
<path stroke="#808080" vector-effect="non-scaling-stroke" d="
  M 131.57 206.31
  L 131.21 214.44
  A 0.55 0.55 0.0 0 0 131.80 215.01
  L 133.59 214.89
  Q 134.23 214.84 134.23 214.20
  Q 134.29 201.83 134.22 189.48
  Q 134.20 185.64 133.47 184.01
  C 131.19 178.88 123.13 180.39 122.85 185.81
  Q 122.41 194.62 122.63 214.42
  Q 122.63 215.00 123.21 215.00
  L 125.00 215.00
  Q 125.50 215.00 125.50 214.50
  L 125.50 206.07
  Q 125.50 205.39 126.18 205.44
  L 131.06 205.73
  Q 131.60 205.77 131.57 206.31"
/>
<path stroke="#808080" vector-effect="non-scaling-stroke" d="
  M 63.00 250.75
  L 67.75 250.75
  Q 68.25 250.75 68.25 251.25
  L 68.25 259.75
  Q 68.25 260.25 68.75 260.25
  L 70.72 260.25
  Q 71.21 260.25 71.21 259.76
  Q 70.96 245.66 70.98 231.56
  C 70.99 224.91 59.80 222.88 59.75 233.46
  Q 59.68 246.51 59.42 259.59
  Q 59.41 260.16 59.97 260.20
  L 61.89 260.36
  Q 62.50 260.41 62.50 259.80
  L 62.50 251.25
  Q 62.50 250.75 63.00 250.75"
/>
<path stroke="#808080" vector-effect="non-scaling-stroke" d="
  M 88.83 247.30
  Q 86.50 237.16 83.89 226.97
  Q 83.69 226.20 82.22 225.88
  A 1.41 1.41 0.0 0 0 80.50 227.26
  L 80.50 259.75
  Q 80.50 260.50 81.25 260.50
  L 83.04 260.50
  Q 83.58 260.50 83.57 259.96
  L 83.47 239.11
  A 0.20 0.20 0.0 0 1 83.87 239.06
  L 88.90 259.66
  A 1.70 1.70 0.0 0 0 92.25 259.26
  L 92.25 226.67
  Q 92.25 226.03 91.61 226.02
  L 89.88 225.99
  Q 89.25 225.98 89.25 226.62
  L 89.25 247.25
  A 0.21 0.21 0.0 0 1 88.83 247.30"
/>
<path stroke="#808080" vector-effect="non-scaling-stroke" d="
  M 101.64 226.18
  L 101.70 260.22
  A 0.23 0.23 0.0 0 0 101.93 260.45
  L 106.68 260.44
  A 6.79 6.48 89.9 0 0 113.15 253.64
  L 113.11 232.72
  A 6.79 6.48 89.9 0 0 106.62 225.94
  L 101.87 225.95
  A 0.23 0.23 0.0 0 0 101.64 226.18"
/>
<path stroke="#808080" vector-effect="non-scaling-stroke" d="
  M 125.72 250.99
  L 128.94 251.38
  A 1.77 1.76 2.4 0 1 130.48 253.04
  L 130.83 259.83
  Q 130.86 260.32 131.34 260.35
  L 133.32 260.50
  A 0.50 0.49 1.6 0 0 133.86 260.00
  C 133.82 256.72 134.25 252.42 132.07 249.98
  Q 131.76 249.64 132.07 249.30
  C 132.94 248.35 133.45 247.70 133.55 246.30
  Q 134.37 234.81 133.48 230.75
  C 132.37 225.77 127.17 225.55 122.78 226.14
  Q 122.25 226.21 122.25 226.75
  L 122.25 259.88
  Q 122.25 260.50 122.87 260.50
  L 124.52 260.50
  Q 125.29 260.50 125.28 259.73
  L 125.18 251.47
  Q 125.18 250.92 125.72 250.99"
/>
<path stroke="#808080" vector-effect="non-scaling-stroke" d="
  M 146.65 257.50
  A 0.40 0.40 0.0 0 1 146.25 257.10
  L 146.25 250.84
  A 0.40 0.40 0.0 0 1 146.69 250.44
  L 150.31 250.84
  A 0.40 0.40 0.0 0 0 150.75 250.44
  L 150.75 248.08
  A 0.40 0.40 0.0 0 0 150.33 247.68
  L 146.65 247.90
  A 0.40 0.40 0.0 0 1 146.23 247.50
  L 146.26 229.01
  A 0.40 0.40 0.0 0 1 146.68 228.61
  L 154.33 228.93
  A 0.40 0.40 0.0 0 0 154.75 228.53
  L 154.75 226.41
  A 0.40 0.40 0.0 0 0 154.35 226.01
  L 143.65 226.00
  A 0.40 0.40 0.0 0 0 143.25 226.40
  L 143.25 260.10
  A 0.40 0.40 0.0 0 0 143.65 260.50
  L 154.27 260.50
  A 0.40 0.40 0.0 0 0 154.67 260.16
  L 154.99 257.96
  A 0.40 0.40 0.0 0 0 154.60 257.50
  L 146.65 257.50"
/>
<path stroke="#808080" vector-effect="non-scaling-stroke" d="
  M 168.41 250.65
  Q 172.06 249.34 172.20 245.43
  Q 172.35 240.95 172.21 226.66
  Q 172.21 226.00 171.54 226.00
  L 170.04 226.00
  Q 169.60 226.00 169.58 226.44
  Q 169.14 235.69 169.01 244.93
  C 168.96 248.55 164.26 248.93 163.86 245.43
  Q 163.36 241.19 163.55 226.99
  Q 163.56 226.35 162.93 226.22
  L 161.56 225.95
  Q 160.77 225.79 160.76 226.59
  Q 160.69 235.89 160.85 245.19
  Q 160.92 249.19 164.37 250.64
  Q 164.86 250.85 164.85 251.38
  L 164.71 259.70
  Q 164.70 260.21 165.20 260.27
  L 167.65 260.56
  Q 168.17 260.62 168.16 260.10
  L 167.94 251.34
  Q 167.93 250.82 168.41 250.65"
/>
<path stroke="#808080" vector-effect="non-scaling-stroke" d="
  M 143.47 180.94
  L 143.53 214.56
  A 0.36 0.36 0.0 0 0 143.89 214.92
  L 148.14 214.91
  A 6.43 6.02 -0.1 0 0 154.56 208.88
  L 154.52 186.58
  A 6.43 6.02 -0.1 0 0 148.08 180.57
  L 143.83 180.58
  A 0.36 0.36 0.0 0 0 143.47 180.94"
/>
<path stroke="#808080" vector-effect="non-scaling-stroke" d="
  M 167.99 181.70
  A 0.99 0.99 0.0 0 0 167.00 180.71
  L 166.24 180.71
  A 0.99 0.99 0.0 0 0 165.25 181.70
  L 165.25 214.14
  A 0.99 0.99 0.0 0 0 166.24 215.13
  L 167.00 215.13
  A 0.99 0.99 0.0 0 0 167.99 214.14
  L 167.99 181.70"
/>
<path stroke="#808080" vector-effect="non-scaling-stroke" d="
  M 146.20 183.77
  L 146.30 211.81
  A 0.51 0.51 0.0 0 0 146.81 212.32
  L 148.15 212.31
  A 4.00 3.87 89.8 0 0 152.01 208.30
  L 151.93 187.24
  A 4.00 3.87 89.8 0 0 148.05 183.25
  L 146.71 183.26
  A 0.51 0.51 0.0 0 0 146.20 183.77"
/>
<path stroke="#808080" vector-effect="non-scaling-stroke" d="
  M 83.60 202.87
  L 88.92 202.87
  A 0.22 0.22 0.0 0 0 89.14 202.64
  L 89.11 188.51
  A 4.75 2.56 89.9 0 0 86.54 183.77
  L 85.90 183.77
  A 4.75 2.56 89.9 0 0 83.35 188.53
  L 83.38 202.66
  A 0.22 0.22 0.0 0 0 83.60 202.87"
/>
<path stroke="#808080" vector-effect="non-scaling-stroke" d="
  M 125.82 202.92
  L 130.98 202.92
  A 0.27 0.27 0.0 0 0 131.25 202.65
  L 131.28 188.72
  A 4.74 2.06 -89.9 0 0 129.23 183.98
  L 127.65 183.98
  A 4.74 2.06 -89.9 0 0 125.58 188.72
  L 125.55 202.65
  A 0.27 0.27 0.0 0 0 125.82 202.92"
/>
<path stroke="#808080" vector-effect="non-scaling-stroke" d="
  M 68.1261 230.9751
  A 1.49 1.49 0.0 0 0 66.6335 229.4877
  L 64.0335 229.4923
  A 1.49 1.49 0.0 0 0 62.5461 230.9849
  L 62.5739 246.8649
  A 1.49 1.49 0.0 0 0 64.0665 248.3523
  L 66.6665 248.3477
  A 1.49 1.49 0.0 0 0 68.1539 246.8551
  L 68.1261 230.9751"
/>
<path stroke="#808080" vector-effect="non-scaling-stroke" d="
  M 104.45 228.92
  L 104.55 257.24
  A 0.34 0.34 0.0 0 0 104.89 257.58
  L 106.38 257.57
  A 3.96 3.77 89.8 0 0 110.14 253.60
  L 110.06 232.52
  A 3.96 3.77 89.8 0 0 106.28 228.57
  L 104.79 228.58
  A 0.34 0.34 0.0 0 0 104.45 228.92"
/>
<path stroke="#808080" vector-effect="non-scaling-stroke" d="
  M 130.33 229.10
  L 125.49 229.10
  A 0.28 0.28 0.0 0 0 125.21 229.38
  L 125.21 245.66
  A 2.28 1.43 90.0 0 0 126.64 247.94
  L 129.18 247.94
  A 2.28 1.43 90.0 0 0 130.61 245.66
  L 130.61 229.38
  A 0.28 0.28 0.0 0 0 130.33 229.10"
/>
</g>
<path fill="#000000" d="
  M 0.00 0.00
  L 225.00 0.00
  L 225.00 323.00
  L 0.00 323.00
  L 0.00 0.00
  Z
  M 100.95 39.73
  L 112.90 53.99
  A 0.54 0.43 -77.6 0 1 113.01 54.21
  C 114.13 58.95 113.04 64.17 112.96 69.04
  Q 112.95 70.07 113.43 69.16
  L 115.25 65.76
  A 0.59 0.59 0.0 0 1 116.12 65.56
  Q 123.76 71.14 129.90 78.36
  A 0.55 0.54 72.7 0 1 129.43 79.26
  C 124.44 78.72 116.01 77.08 112.87 82.15
  Q 107.85 90.26 111.14 99.73
  Q 111.30 100.19 111.67 100.51
  C 113.97 102.48 113.98 104.56 112.10 107.03
  C 109.53 110.39 107.52 113.12 106.60 117.44
  Q 104.32 128.23 103.51 139.23
  Q 103.37 141.14 104.47 142.03
  A 0.81 0.80 -67.3 0 0 105.78 141.49
  Q 106.51 134.41 107.12 127.31
  C 107.72 120.40 112.44 113.45 116.67 108.16
  Q 117.00 107.75 117.39 108.10
  C 119.90 110.42 124.41 112.16 123.73 116.00
  C 123.22 118.83 122.89 122.13 123.96 125.24
  Q 126.56 132.81 127.71 140.76
  Q 128.28 144.78 131.04 146.01
  C 137.61 148.95 146.54 147.14 149.81 139.90
  Q 150.16 139.12 150.59 139.86
  Q 152.65 143.39 156.81 143.13
  A 1.01 0.99 71.7 0 1 157.72 143.60
  Q 159.75 146.86 159.18 150.72
  Q 159.11 151.19 159.30 151.62
  C 163.38 161.21 183.53 160.79 186.31 150.51
  C 187.64 145.60 186.88 136.68 186.90 132.94
  Q 187.14 101.44 186.92 69.93
  C 186.87 63.18 184.16 60.70 178.25 57.36
  Q 150.48 41.69 122.70 26.04
  C 114.25 21.29 107.76 26.79 100.71 30.87
  A 1.83 1.82 51.7 0 1 98.52 30.61
  L 96.14 28.34
  A 0.49 0.49 0.0 0 0 95.32 28.80
  L 97.09 37.29
  A 0.13 0.13 0.0 0 1 96.85 37.39
  Q 93.65 32.25 89.52 27.95
  A 1.26 1.26 0.0 0 0 87.36 28.91
  L 88.00 37.67
  Q 88.02 38.04 87.70 38.22
  Q 70.27 47.97 52.90 57.84
  C 47.24 61.06 44.89 64.09 45.08 70.50
  C 45.74 92.57 44.88 112.91 45.01 140.83
  C 45.05 150.56 45.99 157.67 57.08 158.18
  Q 63.27 158.46 78.94 158.09
  C 95.51 157.70 97.42 144.51 98.17 130.93
  Q 98.67 121.74 95.04 107.24
  Q 94.32 104.38 92.26 103.90
  Q 91.84 103.80 91.62 103.42
  L 91.35 102.97
  Q 91.16 102.65 90.79 102.65
  L 87.07 102.65
  A 0.65 0.59 27.5 0 0 86.76 102.73
  C 80.70 106.13 71.37 109.73 66.03 103.24
  C 62.96 99.52 57.75 91.23 62.12 86.88
  Q 62.48 86.52 62.48 86.01
  C 62.38 79.38 66.76 77.86 72.06 76.04
  A 4.77 4.76 -1.0 0 0 75.07 72.93
  L 77.13 66.21
  A 1.24 1.21 79.6 0 1 77.52 65.63
  Q 81.90 61.96 86.79 58.96
  C 90.68 56.58 92.80 53.94 92.29 49.48
  Q 91.47 42.26 90.62 35.29
  A 0.46 0.46 0.0 0 1 91.48 35.02
  C 93.26 38.24 95.72 44.21 98.87 45.85
  Q 99.48 46.17 99.60 45.49
  L 100.58 39.83
  Q 100.66 39.39 100.95 39.73
  Z
  M 187.65 180.31
  C 187.66 173.76 182.67 168.26 176.00 168.26
  Q 118.02 168.25 60.05 168.25
  C 47.07 168.25 44.49 172.71 44.50 185.50
  Q 44.50 220.95 44.51 256.41
  C 44.51 261.15 45.83 265.72 49.80 267.96
  Q 78.60 284.20 107.39 300.42
  C 112.37 303.23 116.57 304.93 121.44 302.19
  Q 148.87 286.78 176.26 271.29
  C 183.26 267.32 187.48 265.24 187.49 257.25
  Q 187.54 218.78 187.65 180.31
  Z"
/>
<path fill="#ffffff" d="
  M 100.58 39.83
  L 99.60 45.49
  Q 99.48 46.17 98.87 45.85
  C 95.72 44.21 93.26 38.24 91.48 35.02
  A 0.46 0.46 0.0 0 0 90.62 35.29
  Q 91.47 42.26 92.29 49.48
  C 92.80 53.94 90.68 56.58 86.79 58.96
  Q 81.90 61.96 77.52 65.63
  A 1.24 1.21 79.6 0 0 77.13 66.21
  L 75.07 72.93
  A 4.77 4.76 -1.0 0 1 72.06 76.04
  C 66.76 77.86 62.38 79.38 62.48 86.01
  Q 62.48 86.52 62.12 86.88
  C 57.75 91.23 62.96 99.52 66.03 103.24
  C 71.37 109.73 80.70 106.13 86.76 102.73
  A 0.65 0.59 27.5 0 1 87.07 102.65
  L 90.79 102.65
  Q 91.16 102.65 91.35 102.97
  L 91.62 103.42
  Q 91.84 103.80 92.26 103.90
  Q 94.32 104.38 95.04 107.24
  Q 98.67 121.74 98.17 130.93
  C 97.42 144.51 95.51 157.70 78.94 158.09
  Q 63.27 158.46 57.08 158.18
  C 45.99 157.67 45.05 150.56 45.01 140.83
  C 44.88 112.91 45.74 92.57 45.08 70.50
  C 44.89 64.09 47.24 61.06 52.90 57.84
  Q 70.27 47.97 87.70 38.22
  Q 88.02 38.04 88.00 37.67
  L 87.36 28.91
  A 1.26 1.26 0.0 0 1 89.52 27.95
  Q 93.65 32.25 96.85 37.39
  A 0.13 0.13 0.0 0 0 97.09 37.29
  L 95.32 28.80
  A 0.49 0.49 0.0 0 1 96.14 28.34
  L 98.52 30.61
  A 1.83 1.82 51.7 0 0 100.71 30.87
  C 107.76 26.79 114.25 21.29 122.70 26.04
  Q 150.48 41.69 178.25 57.36
  C 184.16 60.70 186.87 63.18 186.92 69.93
  Q 187.14 101.44 186.90 132.94
  C 186.88 136.68 187.64 145.60 186.31 150.51
  C 183.53 160.79 163.38 161.21 159.30 151.62
  Q 159.11 151.19 159.18 150.72
  Q 159.75 146.86 157.72 143.60
  A 1.01 0.99 71.7 0 0 156.81 143.13
  Q 152.65 143.39 150.59 139.86
  Q 150.16 139.12 149.81 139.90
  C 146.54 147.14 137.61 148.95 131.04 146.01
  Q 128.28 144.78 127.71 140.76
  Q 126.56 132.81 123.96 125.24
  C 122.89 122.13 123.22 118.83 123.73 116.00
  C 124.41 112.16 119.90 110.42 117.39 108.10
  Q 117.00 107.75 116.67 108.16
  C 112.44 113.45 107.72 120.40 107.12 127.31
  Q 106.51 134.41 105.78 141.49
  A 0.81 0.80 -67.3 0 1 104.47 142.03
  Q 103.37 141.14 103.51 139.23
  Q 104.32 128.23 106.60 117.44
  C 107.52 113.12 109.53 110.39 112.10 107.03
  C 113.98 104.56 113.97 102.48 111.67 100.51
  Q 111.30 100.19 111.14 99.73
  Q 107.85 90.26 112.87 82.15
  C 116.01 77.08 124.44 78.72 129.43 79.26
  A 0.55 0.54 72.7 0 0 129.90 78.36
  Q 123.76 71.14 116.12 65.56
  A 0.59 0.59 0.0 0 0 115.25 65.76
  L 113.43 69.16
  Q 112.95 70.07 112.96 69.04
  C 113.04 64.17 114.13 58.95 113.01 54.21
  A 0.54 0.43 -77.6 0 0 112.90 53.99
  L 100.95 39.73
  Q 100.66 39.39 100.58 39.83
  Z
  M 168.60 111.05
  L 167.00 110.19
  Q 166.56 109.96 166.20 110.30
  Q 164.56 111.80 165.75 113.50
  Q 169.30 118.56 169.99 121.10
  C 171.56 126.78 174.44 138.82 166.84 141.51
  Q 166.39 141.67 165.99 141.42
  L 163.40 139.81
  A 0.71 0.70 43.2 0 0 162.62 139.83
  C 158.62 142.61 163.75 152.42 168.26 153.25
  C 174.13 154.32 182.57 154.33 182.51 145.99
  Q 182.17 95.96 182.28 69.73
  C 182.30 65.07 180.71 64.02 177.05 61.95
  Q 148.44 45.75 119.74 29.73
  C 114.40 26.75 108.21 31.87 103.58 34.54
  A 0.67 0.67 0.0 0 0 103.38 35.53
  Q 108.74 42.42 113.97 49.51
  C 116.52 52.96 117.43 56.78 118.49 60.72
  A 7.15 7.14 12.6 0 0 120.77 64.31
  Q 127.29 69.83 133.86 76.11
  C 143.38 85.22 155.53 79.89 167.54 80.31
  C 172.95 80.50 175.77 82.23 175.29 88.02
  C 174.81 93.88 174.90 107.18 170.15 110.91
  A 1.42 1.41 -50.1 0 1 168.60 111.05
  Z
  M 86.57 107.16
  C 78.77 114.37 64.69 107.81 58.54 101.56
  C 54.49 97.45 54.76 89.51 57.83 84.99
  C 59.73 82.20 58.45 79.28 59.44 77.08
  C 61.33 72.88 68.96 76.41 71.53 71.95
  C 73.74 68.11 71.68 63.62 76.31 60.73
  C 84.63 55.54 90.41 56.43 88.59 43.67
  Q 88.50 43.09 87.98 43.37
  Q 72.11 52.11 56.42 61.14
  C 52.50 63.39 49.89 64.48 49.81 68.74
  Q 49.21 103.41 49.62 146.40
  C 49.67 151.74 53.08 153.49 58.11 153.52
  C 71.73 153.59 89.44 156.75 92.32 140.84
  C 94.28 130.05 93.85 116.79 87.51 107.27
  A 0.63 0.62 51.5 0 0 86.57 107.16
  Z
  M 136.90 88.71
  Q 139.08 87.75 137.63 89.64
  C 134.97 93.11 132.67 96.08 131.54 100.59
  Q 129.88 107.16 126.96 111.95
  C 122.88 118.62 126.90 124.24 130.70 131.41
  C 132.88 135.49 133.33 148.45 142.11 143.70
  C 148.12 140.45 147.76 130.22 154.70 127.29
  Q 157.09 126.29 158.72 128.24
  A 0.51 0.51 0.0 0 1 158.52 129.04
  Q 152.53 131.34 150.81 137.51
  A 0.13 0.13 0.0 0 0 150.99 137.67
  L 152.65 136.95
  Q 153.16 136.73 153.57 137.11
  C 157.93 141.14 160.18 137.28 162.81 134.28
  Q 163.30 133.71 163.58 134.41
  L 164.55 136.90
  Q 165.17 138.49 166.67 137.68
  Q 168.72 136.58 169.17 134.22
  Q 169.30 133.55 168.81 133.08
  L 164.06 128.58
  A 1.51 1.51 0.0 0 1 164.33 126.19
  L 164.68 125.99
  Q 165.20 125.68 165.71 125.99
  L 168.25 127.54
  A 1.08 1.07 -82.2 0 0 169.84 126.33
  Q 168.44 121.33 165.56 117.15
  C 163.80 114.62 160.93 113.26 158.48 111.19
  A 0.44 0.44 0.0 0 1 158.66 110.43
  C 160.33 110.04 163.85 109.54 164.94 107.63
  C 166.53 104.83 164.93 97.76 163.98 94.77
  C 162.14 88.99 156.82 82.37 150.00 82.94
  Q 140.44 83.74 131.04 82.19
  C 107.35 78.28 112.44 95.36 121.63 107.40
  C 123.17 109.43 125.01 110.20 126.65 107.64
  C 129.69 102.91 127.83 97.61 131.56 92.95
  Q 133.90 90.02 136.90 88.71
  Z
  M 171.26 86.51
  C 170.04 81.66 165.26 79.92 161.72 83.63
  Q 161.39 83.97 161.72 84.31
  C 167.80 90.61 167.50 98.64 167.80 106.79
  A 0.85 0.85 0.0 0 0 169.28 107.33
  C 173.22 103.02 172.55 91.69 171.26 86.51
  Z"
/>
<path fill="#000000" d="
  M 168.60 111.05
  A 1.42 1.41 -50.1 0 0 170.15 110.91
  C 174.90 107.18 174.81 93.88 175.29 88.02
  C 175.77 82.23 172.95 80.50 167.54 80.31
  C 155.53 79.89 143.38 85.22 133.86 76.11
  Q 127.29 69.83 120.77 64.31
  A 7.15 7.14 12.6 0 1 118.49 60.72
  C 117.43 56.78 116.52 52.96 113.97 49.51
  Q 108.74 42.42 103.38 35.53
  A 0.67 0.67 0.0 0 1 103.58 34.54
  C 108.21 31.87 114.40 26.75 119.74 29.73
  Q 148.44 45.75 177.05 61.95
  C 180.71 64.02 182.30 65.07 182.28 69.73
  Q 182.17 95.96 182.51 145.99
  C 182.57 154.33 174.13 154.32 168.26 153.25
  C 163.75 152.42 158.62 142.61 162.62 139.83
  A 0.71 0.70 43.2 0 1 163.40 139.81
  L 165.99 141.42
  Q 166.39 141.67 166.84 141.51
  C 174.44 138.82 171.56 126.78 169.99 121.10
  Q 169.30 118.56 165.75 113.50
  Q 164.56 111.80 166.20 110.30
  Q 166.56 109.96 167.00 110.19
  L 168.60 111.05
  Z"
/>
<path fill="#000000" d="
  M 58.54 101.56
  C 64.69 107.81 78.77 114.37 86.57 107.16
  A 0.63 0.62 51.5 0 1 87.51 107.27
  C 93.85 116.79 94.28 130.05 92.32 140.84
  C 89.44 156.75 71.73 153.59 58.11 153.52
  C 53.08 153.49 49.67 151.74 49.62 146.40
  Q 49.21 103.41 49.81 68.74
  C 49.89 64.48 52.50 63.39 56.42 61.14
  Q 72.11 52.11 87.98 43.37
  Q 88.50 43.09 88.59 43.67
  C 90.41 56.43 84.63 55.54 76.31 60.73
  C 71.68 63.62 73.74 68.11 71.53 71.95
  C 68.96 76.41 61.33 72.88 59.44 77.08
  C 58.45 79.28 59.73 82.20 57.83 84.99
  C 54.76 89.51 54.49 97.45 58.54 101.56
  Z"
/>
<path fill="#000000" d="
  M 136.90 88.71
  Q 133.90 90.02 131.56 92.95
  C 127.83 97.61 129.69 102.91 126.65 107.64
  C 125.01 110.20 123.17 109.43 121.63 107.40
  C 112.44 95.36 107.35 78.28 131.04 82.19
  Q 140.44 83.74 150.00 82.94
  C 156.82 82.37 162.14 88.99 163.98 94.77
  C 164.93 97.76 166.53 104.83 164.94 107.63
  C 163.85 109.54 160.33 110.04 158.66 110.43
  A 0.44 0.44 0.0 0 0 158.48 111.19
  C 160.93 113.26 163.80 114.62 165.56 117.15
  Q 168.44 121.33 169.84 126.33
  A 1.08 1.07 -82.2 0 1 168.25 127.54
  L 165.71 125.99
  Q 165.20 125.68 164.68 125.99
  L 164.33 126.19
  A 1.51 1.51 0.0 0 0 164.06 128.58
  L 168.81 133.08
  Q 169.30 133.55 169.17 134.22
  Q 168.72 136.58 166.67 137.68
  Q 165.17 138.49 164.55 136.90
  L 163.58 134.41
  Q 163.30 133.71 162.81 134.28
  C 160.18 137.28 157.93 141.14 153.57 137.11
  Q 153.16 136.73 152.65 136.95
  L 150.99 137.67
  A 0.13 0.13 0.0 0 1 150.81 137.51
  Q 152.53 131.34 158.52 129.04
  A 0.51 0.51 0.0 0 0 158.72 128.24
  Q 157.09 126.29 154.70 127.29
  C 147.76 130.22 148.12 140.45 142.11 143.70
  C 133.33 148.45 132.88 135.49 130.70 131.41
  C 126.90 124.24 122.88 118.62 126.96 111.95
  Q 129.88 107.16 131.54 100.59
  C 132.67 96.08 134.97 93.11 137.63 89.64
  Q 139.08 87.75 136.90 88.71
  Z
  M 144.48 118.77
  A 0.73 0.73 0.0 0 0 145.84 119.20
  L 149.98 112.16
  A 0.73 0.73 0.0 0 0 148.95 111.18
  L 145.15 113.68
  A 0.73 0.73 0.0 0 0 144.82 114.24
  L 144.48 118.77
  Z
  M 163.12 119.87
  C 161.00 122.66 158.86 120.83 156.34 120.37
  Q 155.84 120.28 155.45 120.62
  Q 154.51 121.44 154.71 122.66
  C 155.33 126.42 166.70 127.13 164.29 120.06
  A 0.67 0.67 0.0 0 0 163.12 119.87
  Z"
/>
<path fill="#000000" d="
  M 161.72 83.63
  C 165.26 79.92 170.04 81.66 171.26 86.51
  C 172.55 91.69 173.22 103.02 169.28 107.33
  A 0.85 0.85 0.0 0 1 167.80 106.79
  C 167.50 98.64 167.80 90.61 161.72 84.31
  Q 161.39 83.97 161.72 83.63
  Z"
/>
<path fill="#ffffff" d="
  M 144.48 118.77
  L 144.82 114.24
  A 0.73 0.73 0.0 0 1 145.15 113.68
  L 148.95 111.18
  A 0.73 0.73 0.0 0 1 149.98 112.16
  L 145.84 119.20
  A 0.73 0.73 0.0 0 1 144.48 118.77
  Z"
/>
<path fill="#ffffff" d="
  M 156.34 120.37
  C 158.86 120.83 161.00 122.66 163.12 119.87
  A 0.67 0.67 0.0 0 1 164.29 120.06
  C 166.70 127.13 155.33 126.42 154.71 122.66
  Q 154.51 121.44 155.45 120.62
  Q 155.84 120.28 156.34 120.37
  Z"
/>
<path fill="#ffffff" d="
  M 176.00 168.26
  C 182.67 168.26 187.66 173.76 187.65 180.31
  Q 187.54 218.78 187.49 257.25
  C 187.48 265.24 183.26 267.32 176.26 271.29
  Q 148.87 286.78 121.44 302.19
  C 116.57 304.93 112.37 303.23 107.39 300.42
  Q 78.60 284.20 49.80 267.96
  C 45.83 265.72 44.51 261.15 44.51 256.41
  Q 44.50 220.95 44.50 185.50
  C 44.49 172.71 47.07 168.25 60.05 168.25
  Q 118.02 168.25 176.00 168.26
  Z
  M 183.47 181.86
  C 183.45 176.03 180.70 172.27 174.50 172.26
  Q 156.64 172.23 139.00 172.26
  A 0.50 0.50 0.0 0 0 138.50 172.76
  L 138.50 217.36
  A 0.61 0.60 0.0 0 0 139.11 217.96
  L 183.06 217.86
  A 0.43 0.43 0.0 0 0 183.49 217.43
  Q 183.53 199.65 183.47 181.86
  Z
  M 66.94 211.52
  L 64.19 211.76
  A 0.92 0.91 -13.3 0 1 63.26 211.19
  Q 62.85 210.16 62.78 208.50
  Q 62.23 195.75 62.85 185.81
  C 63.07 182.26 67.92 183.68 68.20 187.64
  Q 68.25 188.43 69.03 188.28
  L 70.66 187.95
  Q 71.19 187.85 71.18 187.31
  C 71.15 179.15 59.98 177.57 59.72 188.01
  C 59.52 196.41 58.86 204.22 59.93 210.22
  C 61.24 217.66 71.43 215.51 71.24 208.89
  A 1.56 1.56 0.0 0 0 68.15 208.61
  L 67.67 210.88
  A 0.82 0.82 0.0 0 1 66.94 211.52
  Z
  M 91.97 187.77
  C 91.91 178.17 80.51 178.17 80.50 188.51
  Q 80.49 201.43 80.50 214.42
  A 0.60 0.59 84.0 0 0 81.21 215.00
  L 83.01 214.64
  Q 83.54 214.53 83.54 213.98
  L 83.41 205.99
  A 0.47 0.47 0.0 0 1 83.88 205.51
  L 88.75 205.49
  Q 89.25 205.49 89.25 206.00
  L 89.25 214.25
  Q 89.25 215.00 90.00 215.00
  L 91.48 215.00
  Q 91.98 215.00 91.98 214.50
  Q 92.04 201.12 91.97 187.77
  Z
  M 109.46 204.91
  Q 109.43 206.07 109.44 208.51
  C 109.47 213.46 103.47 212.66 104.16 207.81
  Q 104.26 207.13 103.59 207.22
  L 101.62 207.47
  Q 101.18 207.53 101.14 207.97
  C 100.09 219.29 117.43 216.13 111.60 202.33
  A 1.13 1.11 -6.7 0 0 110.75 201.67
  L 104.34 200.71
  Q 103.96 200.65 103.97 200.27
  L 104.09 186.37
  A 2.35 2.35 0.0 0 1 106.12 184.05
  C 108.16 183.76 109.26 184.83 109.37 186.83
  Q 109.70 192.83 109.78 198.84
  Q 109.79 199.47 110.41 199.48
  L 111.94 199.51
  A 0.57 0.56 -88.4 0 0 112.51 198.96
  Q 112.78 191.02 112.38 186.17
  C 111.76 178.63 101.20 178.92 101.03 187.27
  Q 100.90 193.72 101.15 200.20
  C 101.32 204.64 105.70 203.55 108.89 204.20
  A 0.71 0.70 6.8 0 1 109.46 204.91
  Z
  M 131.57 206.31
  L 131.21 214.44
  A 0.55 0.55 0.0 0 0 131.80 215.01
  L 133.59 214.89
  Q 134.23 214.84 134.23 214.20
  Q 134.29 201.83 134.22 189.48
  Q 134.20 185.64 133.47 184.01
  C 131.19 178.88 123.13 180.39 122.85 185.81
  Q 122.41 194.62 122.63 214.42
  Q 122.63 215.00 123.21 215.00
  L 125.00 215.00
  Q 125.50 215.00 125.50 214.50
  L 125.50 206.07
  Q 125.50 205.39 126.18 205.44
  L 131.06 205.73
  Q 131.60 205.77 131.57 206.31
  Z
  M 63.00 250.75
  L 67.75 250.75
  Q 68.25 250.75 68.25 251.25
  L 68.25 259.75
  Q 68.25 260.25 68.75 260.25
  L 70.72 260.25
  Q 71.21 260.25 71.21 259.76
  Q 70.96 245.66 70.98 231.56
  C 70.99 224.91 59.80 222.88 59.75 233.46
  Q 59.68 246.51 59.42 259.59
  Q 59.41 260.16 59.97 260.20
  L 61.89 260.36
  Q 62.50 260.41 62.50 259.80
  L 62.50 251.25
  Q 62.50 250.75 63.00 250.75
  Z
  M 88.83 247.30
  Q 86.50 237.16 83.89 226.97
  Q 83.69 226.20 82.22 225.88
  A 1.41 1.41 0.0 0 0 80.50 227.26
  L 80.50 259.75
  Q 80.50 260.50 81.25 260.50
  L 83.04 260.50
  Q 83.58 260.50 83.57 259.96
  L 83.47 239.11
  A 0.20 0.20 0.0 0 1 83.87 239.06
  L 88.90 259.66
  A 1.70 1.70 0.0 0 0 92.25 259.26
  L 92.25 226.67
  Q 92.25 226.03 91.61 226.02
  L 89.88 225.99
  Q 89.25 225.98 89.25 226.62
  L 89.25 247.25
  A 0.21 0.21 0.0 0 1 88.83 247.30
  Z
  M 101.64 226.18
  L 101.70 260.22
  A 0.23 0.23 0.0 0 0 101.93 260.45
  L 106.68 260.44
  A 6.79 6.48 89.9 0 0 113.15 253.64
  L 113.11 232.72
  A 6.79 6.48 89.9 0 0 106.62 225.94
  L 101.87 225.95
  A 0.23 0.23 0.0 0 0 101.64 226.18
  Z
  M 125.72 250.99
  L 128.94 251.38
  A 1.77 1.76 2.4 0 1 130.48 253.04
  L 130.83 259.83
  Q 130.86 260.32 131.34 260.35
  L 133.32 260.50
  A 0.50 0.49 1.6 0 0 133.86 260.00
  C 133.82 256.72 134.25 252.42 132.07 249.98
  Q 131.76 249.64 132.07 249.30
  C 132.94 248.35 133.45 247.70 133.55 246.30
  Q 134.37 234.81 133.48 230.75
  C 132.37 225.77 127.17 225.55 122.78 226.14
  Q 122.25 226.21 122.25 226.75
  L 122.25 259.88
  Q 122.25 260.50 122.87 260.50
  L 124.52 260.50
  Q 125.29 260.50 125.28 259.73
  L 125.18 251.47
  Q 125.18 250.92 125.72 250.99
  Z
  M 146.65 257.50
  A 0.40 0.40 0.0 0 1 146.25 257.10
  L 146.25 250.84
  A 0.40 0.40 0.0 0 1 146.69 250.44
  L 150.31 250.84
  A 0.40 0.40 0.0 0 0 150.75 250.44
  L 150.75 248.08
  A 0.40 0.40 0.0 0 0 150.33 247.68
  L 146.65 247.90
  A 0.40 0.40 0.0 0 1 146.23 247.50
  L 146.26 229.01
  A 0.40 0.40 0.0 0 1 146.68 228.61
  L 154.33 228.93
  A 0.40 0.40 0.0 0 0 154.75 228.53
  L 154.75 226.41
  A 0.40 0.40 0.0 0 0 154.35 226.01
  L 143.65 226.00
  A 0.40 0.40 0.0 0 0 143.25 226.40
  L 143.25 260.10
  A 0.40 0.40 0.0 0 0 143.65 260.50
  L 154.27 260.50
  A 0.40 0.40 0.0 0 0 154.67 260.16
  L 154.99 257.96
  A 0.40 0.40 0.0 0 0 154.60 257.50
  L 146.65 257.50
  Z
  M 168.41 250.65
  Q 172.06 249.34 172.20 245.43
  Q 172.35 240.95 172.21 226.66
  Q 172.21 226.00 171.54 226.00
  L 170.04 226.00
  Q 169.60 226.00 169.58 226.44
  Q 169.14 235.69 169.01 244.93
  C 168.96 248.55 164.26 248.93 163.86 245.43
  Q 163.36 241.19 163.55 226.99
  Q 163.56 226.35 162.93 226.22
  L 161.56 225.95
  Q 160.77 225.79 160.76 226.59
  Q 160.69 235.89 160.85 245.19
  Q 160.92 249.19 164.37 250.64
  Q 164.86 250.85 164.85 251.38
  L 164.71 259.70
  Q 164.70 260.21 165.20 260.27
  L 167.65 260.56
  Q 168.17 260.62 168.16 260.10
  L 167.94 251.34
  Q 167.93 250.82 168.41 250.65
  Z"
/>
<path fill="#000000" d="
  M 174.50 172.26
  C 180.70 172.27 183.45 176.03 183.47 181.86
  Q 183.53 199.65 183.49 217.43
  A 0.43 0.43 0.0 0 1 183.06 217.86
  L 139.11 217.96
  A 0.61 0.60 0.0 0 1 138.50 217.36
  L 138.50 172.76
  A 0.50 0.50 0.0 0 1 139.00 172.26
  Q 156.64 172.23 174.50 172.26
  Z
  M 143.47 180.94
  L 143.53 214.56
  A 0.36 0.36 0.0 0 0 143.89 214.92
  L 148.14 214.91
  A 6.43 6.02 -0.1 0 0 154.56 208.88
  L 154.52 186.58
  A 6.43 6.02 -0.1 0 0 148.08 180.57
  L 143.83 180.58
  A 0.36 0.36 0.0 0 0 143.47 180.94
  Z
  M 167.99 181.70
  A 0.99 0.99 0.0 0 0 167.00 180.71
  L 166.24 180.71
  A 0.99 0.99 0.0 0 0 165.25 181.70
  L 165.25 214.14
  A 0.99 0.99 0.0 0 0 166.24 215.13
  L 167.00 215.13
  A 0.99 0.99 0.0 0 0 167.99 214.14
  L 167.99 181.70
  Z"
/>
<path fill="#ffffff" d="
  M 143.47 180.94
  A 0.36 0.36 0.0 0 1 143.83 180.58
  L 148.08 180.57
  A 6.43 6.02 -0.1 0 1 154.52 186.58
  L 154.56 208.88
  A 6.43 6.02 -0.1 0 1 148.14 214.91
  L 143.89 214.92
  A 0.36 0.36 0.0 0 1 143.53 214.56
  L 143.47 180.94
  Z
  M 146.20 183.77
  L 146.30 211.81
  A 0.51 0.51 0.0 0 0 146.81 212.32
  L 148.15 212.31
  A 4.00 3.87 89.8 0 0 152.01 208.30
  L 151.93 187.24
  A 4.00 3.87 89.8 0 0 148.05 183.25
  L 146.71 183.26
  A 0.51 0.51 0.0 0 0 146.20 183.77
  Z"
/>
<path fill="#000000" d="
  M 67.67 210.88
  L 68.15 208.61
  A 1.56 1.56 0.0 0 1 71.24 208.89
  C 71.43 215.51 61.24 217.66 59.93 210.22
  C 58.86 204.22 59.52 196.41 59.72 188.01
  C 59.98 177.57 71.15 179.15 71.18 187.31
  Q 71.19 187.85 70.66 187.95
  L 69.03 188.28
  Q 68.25 188.43 68.20 187.64
  C 67.92 183.68 63.07 182.26 62.85 185.81
  Q 62.23 195.75 62.78 208.50
  Q 62.85 210.16 63.26 211.19
  A 0.92 0.91 -13.3 0 0 64.19 211.76
  L 66.94 211.52
  A 0.82 0.82 0.0 0 0 67.67 210.88
  Z"
/>
<path fill="#000000" d="
  M 80.50 188.51
  C 80.51 178.17 91.91 178.17 91.97 187.77
  Q 92.04 201.12 91.98 214.50
  Q 91.98 215.00 91.48 215.00
  L 90.00 215.00
  Q 89.25 215.00 89.25 214.25
  L 89.25 206.00
  Q 89.25 205.49 88.75 205.49
  L 83.88 205.51
  A 0.47 0.47 0.0 0 0 83.41 205.99
  L 83.54 213.98
  Q 83.54 214.53 83.01 214.64
  L 81.21 215.00
  A 0.60 0.59 84.0 0 1 80.50 214.42
  Q 80.49 201.43 80.50 188.51
  Z
  M 83.60 202.87
  L 88.92 202.87
  A 0.22 0.22 0.0 0 0 89.14 202.64
  L 89.11 188.51
  A 4.75 2.56 89.9 0 0 86.54 183.77
  L 85.90 183.77
  A 4.75 2.56 89.9 0 0 83.35 188.53
  L 83.38 202.66
  A 0.22 0.22 0.0 0 0 83.60 202.87
  Z"
/>
<path fill="#000000" d="
  M 108.89 204.20
  C 105.70 203.55 101.32 204.64 101.15 200.20
  Q 100.90 193.72 101.03 187.27
  C 101.20 178.92 111.76 178.63 112.38 186.17
  Q 112.78 191.02 112.51 198.96
  A 0.57 0.56 -88.4 0 1 111.94 199.51
  L 110.41 199.48
  Q 109.79 199.47 109.78 198.84
  Q 109.70 192.83 109.37 186.83
  C 109.26 184.83 108.16 183.76 106.12 184.05
  A 2.35 2.35 0.0 0 0 104.09 186.37
  L 103.97 200.27
  Q 103.96 200.65 104.34 200.71
  L 110.75 201.67
  A 1.13 1.11 -6.7 0 1 111.60 202.33
  C 117.43 216.13 100.09 219.29 101.14 207.97
  Q 101.18 207.53 101.62 207.47
  L 103.59 207.22
  Q 104.26 207.13 104.16 207.81
  C 103.47 212.66 109.47 213.46 109.44 208.51
  Q 109.43 206.07 109.46 204.91
  A 0.71 0.70 6.8 0 0 108.89 204.20
  Z"
/>
<path fill="#000000" d="
  M 131.06 205.73
  L 126.18 205.44
  Q 125.50 205.39 125.50 206.07
  L 125.50 214.50
  Q 125.50 215.00 125.00 215.00
  L 123.21 215.00
  Q 122.63 215.00 122.63 214.42
  Q 122.41 194.62 122.85 185.81
  C 123.13 180.39 131.19 178.88 133.47 184.01
  Q 134.20 185.64 134.22 189.48
  Q 134.29 201.83 134.23 214.20
  Q 134.23 214.84 133.59 214.89
  L 131.80 215.01
  A 0.55 0.55 0.0 0 1 131.21 214.44
  L 131.57 206.31
  Q 131.60 205.77 131.06 205.73
  Z
  M 125.82 202.92
  L 130.98 202.92
  A 0.27 0.27 0.0 0 0 131.25 202.65
  L 131.28 188.72
  A 4.74 2.06 -89.9 0 0 129.23 183.98
  L 127.65 183.98
  A 4.74 2.06 -89.9 0 0 125.58 188.72
  L 125.55 202.65
  A 0.27 0.27 0.0 0 0 125.82 202.92
  Z"
/>
<rect fill="#ffffff" x="165.25" y="180.71" width="2.74" height="34.42" rx="0.99"/>
<path fill="#000000" d="
  M 146.20 183.77
  A 0.51 0.51 0.0 0 1 146.71 183.26
  L 148.05 183.25
  A 4.00 3.87 89.8 0 1 151.93 187.24
  L 152.01 208.30
  A 4.00 3.87 89.8 0 1 148.15 212.31
  L 146.81 212.32
  A 0.51 0.51 0.0 0 1 146.30 211.81
  L 146.20 183.77
  Z"
/>
<path fill="#ffffff" d="
  M 83.60 202.87
  A 0.22 0.22 0.0 0 1 83.38 202.66
  L 83.35 188.53
  A 4.75 2.56 89.9 0 1 85.90 183.77
  L 86.54 183.77
  A 4.75 2.56 89.9 0 1 89.11 188.51
  L 89.14 202.64
  A 0.22 0.22 0.0 0 1 88.92 202.87
  L 83.60 202.87
  Z"
/>
<path fill="#ffffff" d="
  M 125.82 202.92
  A 0.27 0.27 0.0 0 1 125.55 202.65
  L 125.58 188.72
  A 4.74 2.06 -89.9 0 1 127.65 183.98
  L 129.23 183.98
  A 4.74 2.06 -89.9 0 1 131.28 188.72
  L 131.25 202.65
  A 0.27 0.27 0.0 0 1 130.98 202.92
  L 125.82 202.92
  Z"
/>
<path fill="#000000" d="
  M 62.50 251.25
  L 62.50 259.80
  Q 62.50 260.41 61.89 260.36
  L 59.97 260.20
  Q 59.41 260.16 59.42 259.59
  Q 59.68 246.51 59.75 233.46
  C 59.80 222.88 70.99 224.91 70.98 231.56
  Q 70.96 245.66 71.21 259.76
  Q 71.21 260.25 70.72 260.25
  L 68.75 260.25
  Q 68.25 260.25 68.25 259.75
  L 68.25 251.25
  Q 68.25 250.75 67.75 250.75
  L 63.00 250.75
  Q 62.50 250.75 62.50 251.25
  Z
  M 68.1261 230.9751
  A 1.49 1.49 0.0 0 0 66.6335 229.4877
  L 64.0335 229.4923
  A 1.49 1.49 0.0 0 0 62.5461 230.9849
  L 62.5739 246.8649
  A 1.49 1.49 0.0 0 0 64.0665 248.3523
  L 66.6665 248.3477
  A 1.49 1.49 0.0 0 0 68.1539 246.8551
  L 68.1261 230.9751
  Z"
/>
<path fill="#000000" d="
  M 88.83 247.30
  A 0.21 0.21 0.0 0 0 89.25 247.25
  L 89.25 226.62
  Q 89.25 225.98 89.88 225.99
  L 91.61 226.02
  Q 92.25 226.03 92.25 226.67
  L 92.25 259.26
  A 1.70 1.70 0.0 0 1 88.90 259.66
  L 83.87 239.06
  A 0.20 0.20 0.0 0 0 83.47 239.11
  L 83.57 259.96
  Q 83.58 260.50 83.04 260.50
  L 81.25 260.50
  Q 80.50 260.50 80.50 259.75
  L 80.50 227.26
  A 1.41 1.41 0.0 0 1 82.22 225.88
  Q 83.69 226.20 83.89 226.97
  Q 86.50 237.16 88.83 247.30
  Z"
/>
<path fill="#000000" d="
  M 101.64 226.18
  A 0.23 0.23 0.0 0 1 101.87 225.95
  L 106.62 225.94
  A 6.79 6.48 89.9 0 1 113.11 232.72
  L 113.15 253.64
  A 6.79 6.48 89.9 0 1 106.68 260.44
  L 101.93 260.45
  A 0.23 0.23 0.0 0 1 101.70 260.22
  L 101.64 226.18
  Z
  M 104.45 228.92
  L 104.55 257.24
  A 0.34 0.34 0.0 0 0 104.89 257.58
  L 106.38 257.57
  A 3.96 3.77 89.8 0 0 110.14 253.60
  L 110.06 232.52
  A 3.96 3.77 89.8 0 0 106.28 228.57
  L 104.79 228.58
  A 0.34 0.34 0.0 0 0 104.45 228.92
  Z"
/>
<path fill="#000000" d="
  M 125.18 251.47
  L 125.28 259.73
  Q 125.29 260.50 124.52 260.50
  L 122.87 260.50
  Q 122.25 260.50 122.25 259.88
  L 122.25 226.75
  Q 122.25 226.21 122.78 226.14
  C 127.17 225.55 132.37 225.77 133.48 230.75
  Q 134.37 234.81 133.55 246.30
  C 133.45 247.70 132.94 248.35 132.07 249.30
  Q 131.76 249.64 132.07 249.98
  C 134.25 252.42 133.82 256.72 133.86 260.00
  A 0.50 0.49 1.6 0 1 133.32 260.50
  L 131.34 260.35
  Q 130.86 260.32 130.83 259.83
  L 130.48 253.04
  A 1.77 1.76 2.4 0 0 128.94 251.38
  L 125.72 250.99
  Q 125.18 250.92 125.18 251.47
  Z
  M 130.33 229.10
  L 125.49 229.10
  A 0.28 0.28 0.0 0 0 125.21 229.38
  L 125.21 245.66
  A 2.28 1.43 90.0 0 0 126.64 247.94
  L 129.18 247.94
  A 2.28 1.43 90.0 0 0 130.61 245.66
  L 130.61 229.38
  A 0.28 0.28 0.0 0 0 130.33 229.10
  Z"
/>
<path fill="#000000" d="
  M 146.65 257.50
  L 154.60 257.50
  A 0.40 0.40 0.0 0 1 154.99 257.96
  L 154.67 260.16
  A 0.40 0.40 0.0 0 1 154.27 260.50
  L 143.65 260.50
  A 0.40 0.40 0.0 0 1 143.25 260.10
  L 143.25 226.40
  A 0.40 0.40 0.0 0 1 143.65 226.00
  L 154.35 226.01
  A 0.40 0.40 0.0 0 1 154.75 226.41
  L 154.75 228.53
  A 0.40 0.40 0.0 0 1 154.33 228.93
  L 146.68 228.61
  A 0.40 0.40 0.0 0 0 146.26 229.01
  L 146.23 247.50
  A 0.40 0.40 0.0 0 0 146.65 247.90
  L 150.33 247.68
  A 0.40 0.40 0.0 0 1 150.75 248.08
  L 150.75 250.44
  A 0.40 0.40 0.0 0 1 150.31 250.84
  L 146.69 250.44
  A 0.40 0.40 0.0 0 0 146.25 250.84
  L 146.25 257.10
  A 0.40 0.40 0.0 0 0 146.65 257.50
  Z"
/>
<path fill="#000000" d="
  M 167.94 251.34
  L 168.16 260.10
  Q 168.17 260.62 167.65 260.56
  L 165.20 260.27
  Q 164.70 260.21 164.71 259.70
  L 164.85 251.38
  Q 164.86 250.85 164.37 250.64
  Q 160.92 249.19 160.85 245.19
  Q 160.69 235.89 160.76 226.59
  Q 160.77 225.79 161.56 225.95
  L 162.93 226.22
  Q 163.56 226.35 163.55 226.99
  Q 163.36 241.19 163.86 245.43
  C 164.26 248.93 168.96 248.55 169.01 244.93
  Q 169.14 235.69 169.58 226.44
  Q 169.60 226.00 170.04 226.00
  L 171.54 226.00
  Q 172.21 226.00 172.21 226.66
  Q 172.35 240.95 172.20 245.43
  Q 172.06 249.34 168.41 250.65
  Q 167.93 250.82 167.94 251.34
  Z"
/>
<path fill="#ffffff" d="
  M 104.45 228.92
  A 0.34 0.34 0.0 0 1 104.79 228.58
  L 106.28 228.57
  A 3.96 3.77 89.8 0 1 110.06 232.52
  L 110.14 253.60
  A 3.96 3.77 89.8 0 1 106.38 257.57
  L 104.89 257.58
  A 0.34 0.34 0.0 0 1 104.55 257.24
  L 104.45 228.92
  Z"
/>
<path fill="#ffffff" d="
  M 130.33 229.10
  A 0.28 0.28 0.0 0 1 130.61 229.38
  L 130.61 245.66
  A 2.28 1.43 90.0 0 1 129.18 247.94
  L 126.64 247.94
  A 2.28 1.43 90.0 0 1 125.21 245.66
  L 125.21 229.38
  A 0.28 0.28 0.0 0 1 125.49 229.10
  L 130.33 229.10
  Z"
/>
<rect fill="#ffffff" x="-2.79" y="-9.43" transform="translate(65.35,238.92) rotate(-0.1)" width="5.58" height="18.86" rx="1.49"/>
</svg>
